<svg xmlns="http://www.w3.org/2000/svg" xmlns:xlink="http://www.w3.org/1999/xlink" width="410" zoomAndPan="magnify" viewBox="0 0 307.5 221.249992" height="295" preserveAspectRatio="xMidYMid meet" version="1.0"><defs><filter x="0%" y="0%" width="100%" height="100%" id="1162655054"><feColorMatrix values="0 0 0 0 1 0 0 0 0 1 0 0 0 0 1 0 0 0 1 0" color-interpolation-filters="sRGB"/></filter><mask id="d2fa4fed57"><g filter="url(#1162655054)"><rect x="-30.75" width="369" fill="#000000" y="-22.124999" height="265.49999" fill-opacity="0.61"/></g></mask><clipPath id="41fe044381"><path d="M 27 18 L 251 18 L 251 184 L 27 184 Z M 27 18 " clip-rule="nonzero"/></clipPath><clipPath id="3590e5a52d"><path d="M 25.886719 -5.492188 L 271.054688 52.339844 L 233.300781 212.390625 L -11.867188 154.554688 Z M 25.886719 -5.492188 " clip-rule="nonzero"/></clipPath><clipPath id="afd4de1738"><path d="M 25.886719 -5.492188 L 271.054688 52.339844 L 233.300781 212.390625 L -11.867188 154.554688 Z M 25.886719 -5.492188 " clip-rule="nonzero"/></clipPath><clipPath id="5c7de6c474"><rect x="0" width="260" y="0" height="210"/></clipPath></defs><g mask="url(#d2fa4fed57)"><g transform="matrix(1, 0, 0, 1, 24, 7)"><g clip-path="url(#5c7de6c474)"><g clip-path="url(#41fe044381)"><g clip-path="url(#3590e5a52d)"><g clip-path="url(#afd4de1738)"><path fill="#8d5524" d="M 216.707031 109.261719 C 221.140625 111.363281 221.082031 115.8125 220.472656 118.8125 C 218.5625 128.179688 204.246094 134.058594 184.652344 126.03125 C 176.179688 122.578125 167.382812 116.832031 157.253906 105.253906 C 157.117188 105.417969 157.03125 105.5 156.984375 105.554688 C 157.113281 106.277344 157.101562 107.035156 156.890625 107.78125 C 156.808594 108.125 156.671875 108.421875 156.5 108.746094 C 162.753906 110.386719 175.945312 123.976562 178.46875 128.703125 C 179.011719 129.757812 179.164062 130.65625 179.175781 131.316406 C 179.332031 131.355469 179.457031 131.382812 179.613281 131.421875 C 183.710938 132.6875 192.511719 157.175781 192.242188 159.160156 C 191.941406 161.140625 184.445312 155.503906 182.40625 150.824219 C 179.824219 145.09375 176.773438 136.867188 177.179688 133.195312 C 174.367188 132.070312 165.503906 125.777344 159.652344 122.28125 C 156.960938 120.65625 154.425781 115 154.167969 111.46875 C 153.550781 111.851562 152.898438 112.226562 152.214844 112.460938 C 152.578125 114.003906 152.21875 115.539062 151.167969 116.910156 C 150.558594 117.660156 149.84375 118.316406 149.03125 118.820312 C 149.238281 119.066406 149.460938 119.382812 149.652344 119.691406 C 149.699219 119.769531 149.769531 119.886719 149.792969 119.925781 C 150.074219 118.734375 150.675781 118.148438 151.628906 118.308594 C 157.25 119.566406 166.035156 134.035156 167.730469 139.460938 C 168.019531 140.621094 168.070312 141.527344 167.910156 142.214844 C 168.066406 142.25 168.253906 142.296875 168.441406 142.339844 C 172.3125 144.144531 167.726562 175.496094 166.554688 177.101562 C 165.382812 178.710938 160.503906 167.578125 160.953125 162.027344 C 161.414062 156.285156 163.046875 147.414062 165.464844 143.753906 C 162.703125 142.839844 156.402344 137.1875 155.320312 135.875 C 154.75 135.210938 154.234375 134.460938 153.734375 133.78125 C 154.367188 140.34375 153.898438 146.8125 153.390625 149.800781 C 152.21875 157.160156 149.636719 163.757812 147.121094 167.128906 C 147.011719 167.171875 140.097656 177.707031 127.191406 180.710938 C 127.191406 180.710938 120.066406 183.160156 111.226562 183.226562 C 103.34375 179.21875 98.066406 173.839844 98.066406 173.839844 C 87.894531 165.390625 86.417969 152.875 86.304688 152.785156 C 85.5625 148.640625 86.171875 141.578125 88.441406 134.476562 C 89.316406 131.609375 91.851562 125.628906 95.296875 119.996094 C 94.5 120.433594 93.746094 120.820312 92.941406 121.15625 C 91.355469 121.84375 83.222656 124.089844 80.34375 123.675781 C 80.871094 128.03125 78.332031 136.6875 76.210938 142.039062 C 74.164062 147.210938 64.800781 154.953125 64.464844 153.019531 C 64.132812 151.058594 74.074219 120.972656 78.3125 121.078125 C 78.515625 121.0625 78.671875 121.097656 78.84375 121.203125 C 79.007812 120.515625 79.441406 119.792969 80.234375 118.820312 C 84.175781 114.726562 98.523438 105.746094 104.09375 107.09375 C 105.03125 107.316406 105.261719 108.164062 105.011719 109.359375 C 105.089844 109.3125 105.207031 109.242188 105.246094 109.214844 C 105.554688 109.023438 105.847656 108.894531 106.191406 108.710938 C 105.695312 107.867188 105.277344 106.976562 105.132812 106.050781 C 104.804688 104.351562 105.167969 102.816406 106.179688 101.601562 C 105.621094 101.039062 105.199219 100.445312 104.878906 99.839844 C 103.011719 102.839844 98.203125 106.828125 95.140625 107.066406 C 88.335938 107.609375 77.601562 109.242188 74.585938 108.992188 C 73.304688 112.460938 66.867188 118.445312 62.027344 122.429688 C 58.128906 125.640625 48.863281 127.355469 49.503906 125.488281 C 50.117188 123.585938 68.960938 105.648438 73.199219 106.320312 C 73.355469 106.355469 73.480469 106.386719 73.636719 106.421875 C 73.949219 105.800781 74.480469 105.101562 75.4375 104.398438 C 79.835938 101.304688 97.640625 95.058594 104.011719 96.363281 C 104.015625 96.066406 104.074219 95.683594 104.089844 95.324219 C 104.207031 94.558594 104.53125 93.875 105 93.289062 C 104.953125 93.214844 104.953125 93.082031 104.894531 92.902344 C 90.660156 98.734375 80.289062 99.957031 71.097656 99.246094 C 50.140625 97.707031 39.933594 86.039062 42.4375 76.8125 C 43.234375 73.859375 45.242188 69.839844 50.074219 69.953125 C 17.277344 59.871094 21.242188 14.191406 58.40625 31.6875 C 77.039062 40.015625 99.851562 59.910156 114.355469 71.992188 C 115.046875 71.726562 115.816406 71.542969 116.550781 71.519531 C 113.933594 69.578125 110.882812 65.421875 110.285156 62.207031 C 108.972656 55.582031 108.3125 52.914062 108.71875 51.753906 C 106.238281 51.464844 101.328125 49.578125 97.007812 46.742188 C 92.738281 43.949219 88.804688 34.988281 87.300781 33.644531 C 89.195312 31.644531 98.429688 39.871094 109.261719 49.730469 C 109.914062 50.316406 110.210938 50.75 110.300781 51.066406 C 111.035156 51.308594 111.945312 52.085938 113.140625 53.457031 C 115.933594 56.894531 120.277344 63.703125 120.847656 68.433594 C 121.738281 67.75 122.746094 67.261719 123.804688 66.980469 C 122.050781 65.578125 121.363281 63.59375 122.757812 60.617188 C 123.335938 59.433594 124.125 58.328125 124.984375 57.34375 C 127.492188 54.429688 130.628906 52.625 133.964844 51.792969 C 131.660156 48.535156 133.296875 36.691406 128.972656 32.597656 C 122.917969 26.871094 113.957031 24.921875 111.429688 22.175781 C 110.859375 21.511719 110.535156 20.644531 110.632812 19.808594 C 111.40625 14.699219 127.113281 24.785156 130.28125 29.566406 C 131.621094 31.601562 132.707031 33.015625 132.71875 33.679688 C 133.167969 35.964844 138.050781 47.367188 137.03125 51.257812 C 140.386719 51.058594 143.757812 51.753906 146.722656 53.347656 C 146.957031 53.46875 147.1875 53.621094 147.429688 53.710938 C 148.257812 49.773438 157.726562 41.726562 159.148438 39.914062 C 159.46875 39.261719 161.105469 38.488281 163.164062 37.324219 C 168.136719 34.460938 186.652344 32.484375 185.101562 37.375 C 184.839844 38.203125 184.1875 38.878906 183.332031 39.136719 C 179.78125 40.449219 170.957031 38.203125 162.980469 40.617188 C 157.292969 42.316406 153.484375 53.683594 149.9375 55.558594 C 152.550781 57.796875 154.554688 60.78125 155.488281 64.539062 C 155.816406 65.804688 155.960938 67.160156 156.015625 68.464844 C 155.933594 71.75 154.433594 73.214844 152.269531 73.695312 C 153.089844 74.417969 153.773438 75.308594 154.261719 76.316406 C 156.886719 72.339844 163.816406 68.1875 167.84375 66.394531 C 169.550781 65.738281 170.679688 65.445312 171.453125 65.527344 C 171.675781 65.28125 172.203125 65.011719 172.980469 64.796875 C 187.0625 60.746094 199.023438 57.550781 199.816406 60.21875 C 197.902344 60.757812 190.3125 67 185.28125 67.597656 C 180.113281 68.199219 174.914062 67.667969 172.5625 66.847656 C 172.484375 68.019531 170.640625 70.097656 166.488281 75.496094 C 164.457031 78.09375 159.921875 80.492188 156.722656 81.027344 C 157.367188 81.378906 157.941406 81.878906 158.472656 82.433594 C 176.851562 78.105469 206.15625 70.472656 226.539062 71.378906 C 229.761719 71.445312 232.597656 71.753906 235.082031 72.304688 C 235.175781 72.328125 235.332031 72.363281 235.425781 72.386719 C 264.503906 78.882812 247.800781 114.382812 216.707031 109.261719 Z M 205.339844 82.910156 C 205.089844 83.117188 205.199219 83.503906 205.5 83.476562 C 208.996094 83.242188 221.246094 81.339844 229.695312 83.496094 C 231.464844 83.980469 233.59375 82.53125 235.53125 80.90625 C 236.226562 80.34375 240.1875 77.839844 236.011719 75.367188 C 234.210938 74.3125 230.988281 73.820312 226.277344 73.601562 C 216.992188 73.03125 217.234375 75.367188 205.339844 82.910156 Z M 188.90625 86.140625 C 198.570312 90.570312 208.46875 95.980469 218.980469 96.542969 C 220.417969 96.617188 221.914062 96.441406 223.332031 96.046875 L 237.359375 92.214844 C 237.925781 92.050781 238.097656 91.332031 237.65625 90.960938 C 223.5625 79.933594 205.148438 87.359375 188.90625 86.140625 Z M 161.9375 85.265625 C 167.609375 84.621094 174.871094 84.25 181.425781 84.078125 C 183.421875 84.019531 185.453125 84.101562 187.515625 84.191406 C 196.402344 84.769531 214.078125 75.152344 210.257812 74.8125 C 194.9375 76.6875 173.707031 80.503906 161.9375 85.265625 Z M 159.941406 90.648438 C 173.386719 97.125 189.167969 94.136719 204.222656 95.339844 C 192.179688 88.796875 172.097656 82.273438 160.578125 88.648438 C 160.507812 89.359375 160.285156 90.035156 159.941406 90.648438 Z M 179.820312 97.75 C 175.777344 96.53125 171.378906 96.121094 166.921875 95.535156 C 165.894531 95.390625 161.710938 95.757812 162.460938 96.925781 C 162.800781 97.4375 165.308594 98.855469 168.796875 99.777344 C 175.242188 101.464844 180.113281 102.25 188.363281 103.566406 C 190.996094 103.757812 183.0625 98.714844 179.820312 97.75 Z M 164.675781 101.121094 C 164.269531 101.585938 174.796875 107.835938 177.640625 108.675781 C 180.484375 109.511719 191.085938 107.316406 191.410156 106.5 C 191.742188 105.652344 165.09375 100.621094 164.675781 101.121094 Z M 145.785156 64.894531 C 146.019531 67.261719 150.316406 70.492188 151.5625 67.578125 C 151.035156 65.902344 148.507812 64.972656 148.832031 62.769531 C 149.890625 54.359375 144.175781 60.214844 145.785156 64.894531 Z M 126.800781 61.703125 C 126.609375 64.898438 131.933594 63.90625 133.171875 61.886719 C 136.761719 58.433594 134.207031 50.625 131.402344 58.589844 C 130.691406 60.769531 128.007812 60.503906 126.800781 61.703125 Z M 109.34375 76.5625 C 101.886719 65.710938 80.976562 62.566406 67.308594 63.042969 C 81.347656 68.703125 94.109375 78.359375 109.019531 78.636719 C 108.957031 77.925781 109.085938 77.230469 109.34375 76.5625 Z M 103.945312 83.058594 C 105.167969 82.355469 101.554688 80.148438 100.574219 79.816406 C 96.320312 78.382812 92.207031 76.75 88.046875 76.035156 C 84.746094 75.453125 75.355469 76.445312 77.800781 77.417969 C 85.789062 79.867188 90.484375 81.402344 97 82.777344 C 100.546875 83.578125 103.394531 83.425781 103.945312 83.058594 Z M 73.792969 78.722656 C 73.765625 79.542969 82.25 86.304688 85.136719 86.820312 C 88.054688 87.34375 100.265625 86.453125 100.109375 85.855469 C 99.921875 85.25 73.835938 77.839844 73.792969 78.722656 Z M 85.125 61.660156 C 70.015625 55.484375 56.863281 40.613281 39.4375 44.136719 C 38.84375 44.261719 38.683594 44.953125 39.140625 45.390625 L 49.945312 55.078125 C 51.035156 56.0625 52.296875 56.890625 53.617188 57.464844 C 63.222656 61.714844 74.496094 61.300781 85.125 61.660156 Z M 87.207031 60.53125 C 89.066406 61.332031 90.898438 62.128906 92.707031 63.148438 C 98.507812 66.304688 104.820312 69.808594 109.609375 72.921875 C 101.214844 63.371094 83.921875 50.5 71.046875 42.007812 C 67.484375 40.570312 78.984375 57.136719 87.207031 60.53125 Z M 45.753906 36.140625 C 46.757812 38.460938 48.015625 40.707031 49.816406 41.066406 C 58.308594 42.902344 68.410156 50.113281 71.46875 51.859375 C 71.726562 52.019531 72.035156 51.695312 71.867188 51.425781 C 64.566406 39.355469 65.828125 37.371094 57.296875 33.738281 C 52.984375 31.828125 49.882812 30.832031 47.800781 30.96875 C 42.964844 31.28125 45.390625 35.292969 45.753906 36.140625 Z M 42.957031 40.703125 C 44.957031 40.347656 45.195312 39.910156 44.296875 38.109375 C 41.90625 33.382812 37.339844 31.015625 34.300781 33.109375 C 31.261719 35.199219 30.503906 37.433594 30.785156 39.1875 C 31.152344 41.984375 35.394531 41.929688 42.957031 40.703125 Z M 39.027344 58.621094 C 41.316406 59.160156 44.953125 58.597656 47.265625 57.753906 C 47.957031 57.488281 48.101562 56.59375 47.570312 56.039062 L 36.503906 46.058594 C 35.21875 44.925781 33.425781 44.539062 31.855469 45.160156 C 30.039062 46.285156 30.046875 49.328125 31.496094 52.015625 C 32.015625 53.164062 36.648438 58.058594 39.027344 58.621094 Z M 84.023438 73.464844 C 73.808594 68.707031 65.960938 64.542969 54.015625 59.839844 C 52.710938 59.335938 51.304688 59.136719 49.902344 59.332031 C 45.648438 59.851562 39.765625 61.109375 40.097656 61.515625 C 43.1875 65.089844 67.390625 78.105469 84.023438 73.464844 Z M 48.609375 76.019531 C 57.191406 80.558594 73.472656 90.019531 80.683594 86.925781 C 81.523438 85.605469 71.554688 80.640625 67.667969 77.640625 C 66.246094 76.511719 64.628906 75.667969 62.878906 75.089844 C 59.234375 73.867188 56.25 72.367188 52.320312 72.070312 C 51.273438 72.019531 50.125 72.113281 48.929688 72.425781 C 47.265625 72.894531 46.992188 75.175781 48.609375 76.019531 Z M 56.757812 91.796875 C 58.421875 91.890625 68.21875 89.738281 68.058594 88.445312 C 67.902344 87.152344 54.066406 81.339844 47.558594 78.089844 C 45.933594 77.273438 44.101562 78.59375 44.359375 80.308594 C 44.929688 84.046875 47.140625 86.882812 49.933594 89.195312 C 51.929688 90.820312 54.335938 91.6875 56.757812 91.796875 Z M 87.972656 88.8125 L 72.105469 89.664062 C 71.464844 89.710938 70.871094 89.835938 70.226562 90.046875 L 59.800781 94.167969 C 59.039062 94.449219 63.839844 97.367188 71.148438 96.378906 C 77.246094 95.472656 83.378906 91.894531 87.972656 88.8125 Z M 104.609375 90.191406 C 104.320312 89.59375 104.164062 88.992188 104.046875 88.371094 C 102.949219 88.113281 100.972656 87.945312 97.550781 88.160156 C 94.835938 88.3125 92.207031 89.082031 89.820312 90.371094 L 78.175781 96.714844 C 83.042969 97.53125 100.828125 92.902344 104.609375 90.191406 Z M 109.1875 80.59375 C 109.097656 80.273438 109.046875 79.929688 108.957031 79.613281 C 108.140625 80.113281 107.464844 80.878906 106.914062 81.675781 C 107.585938 81.207031 108.347656 80.789062 109.1875 80.59375 Z M 106.003906 92.269531 C 105.851562 92.070312 105.652344 91.925781 105.566406 91.738281 C 105.511719 92.253906 105.421875 92.628906 105.347656 92.941406 C 105.539062 92.691406 105.753906 92.476562 106.003906 92.269531 Z M 140.957031 169.578125 C 140.617188 169.761719 140.203125 169.828125 139.703125 169.578125 C 138.046875 168.890625 138.019531 166.472656 138.019531 166.472656 C 138.019531 166.472656 137.042969 167.960938 134.785156 167.160156 C 132.511719 166.425781 132.796875 164.511719 132.796875 164.511719 C 132.796875 164.511719 131.609375 166.050781 129.621094 165.644531 C 127.570312 165.230469 127.449219 163.777344 127.289062 162.914062 C 125.511719 164.84375 122.660156 163.90625 122 161.371094 C 120.578125 162.917969 117.507812 162.195312 116.589844 160.621094 C 115.035156 161.609375 111.996094 160.894531 111.414062 158.871094 C 109.6875 160.878906 106.714844 160.441406 105.996094 157.890625 C 105.464844 158.59375 104.707031 159.835938 102.6875 159.292969 C 100.667969 158.75 100.351562 156.859375 100.351562 156.859375 C 100.351562 156.859375 99.753906 158.699219 97.390625 158.339844 C 95.03125 157.984375 94.804688 156.277344 94.804688 156.277344 C 94.804688 156.277344 93.734375 158.4375 91.914062 158.304688 C 91.359375 158.273438 90.988281 158.019531 90.789062 157.742188 C 92.417969 163.449219 96.5625 169.980469 101.058594 173.488281 C 102.597656 174.675781 104.878906 174.390625 105.925781 172.75 C 106.027344 172.609375 106.078125 172.523438 106.117188 172.367188 C 106.632812 173.546875 108.644531 174.683594 110.308594 174.777344 C 111.988281 174.808594 113.066406 173.875 113.605469 173.140625 C 113.824219 174.019531 114.335938 175.363281 115.820312 176.078125 C 117.335938 176.796875 119.660156 176.621094 120.648438 175.792969 C 120.671875 175.964844 120.675781 176.097656 120.644531 176.222656 C 120.882812 178.164062 122.765625 179.433594 124.671875 179.058594 C 130.292969 177.9375 136.949219 173.953125 140.957031 169.578125 Z M 145.699219 130 C 145.347656 130.644531 144.269531 132.273438 142.359375 131.824219 C 139.277344 131.164062 138.929688 127.578125 138.753906 127.203125 C 138.65625 127.347656 137.550781 129.367188 134.886719 128.605469 C 132.789062 127.683594 132.53125 126.265625 132.328125 124.464844 C 132.09375 125.039062 131.722656 125.480469 131.234375 125.726562 C 129.742188 126.730469 127.683594 126.34375 126.433594 125.058594 C 125.984375 124.589844 125.601562 123.96875 125.402344 123.261719 C 124.902344 123.839844 124.292969 124.191406 123.679688 124.410156 C 121.984375 125 119.972656 124.425781 119.085938 122.863281 C 118.835938 122.375 118.625 121.859375 118.671875 121.242188 C 117.742188 122.808594 116.78125 123.9375 114.53125 123.804688 C 111.832031 123.332031 111.753906 121 111.695312 120.820312 C 111.386719 121.011719 109.40625 124.082031 106.40625 123.34375 C 104.480469 122.824219 104.269531 120.921875 104.234375 120.21875 C 103.773438 120.640625 101.117188 122.789062 99.3125 122.03125 C 96.1875 124.898438 92.167969 134.101562 92.128906 134.820312 C 92.03125 135.523438 92.210938 136.292969 93.152344 136.515625 C 95.09375 136.972656 96.304688 135.339844 96.28125 135.433594 C 96.308594 136.167969 97.019531 136.796875 98.167969 136.96875 C 100.273438 137.300781 101.71875 135.660156 101.71875 135.660156 C 101.695312 136.445312 102.160156 137.285156 103.832031 137.480469 C 105.382812 137.78125 106.78125 136.753906 106.859375 136.011719 C 107.195312 137.246094 108.222656 137.789062 109.566406 137.839844 C 110.894531 137.957031 111.628906 137.5 112.625 136.644531 C 112.625 136.644531 112.765625 138.296875 114.667969 138.648438 C 116.566406 138.996094 118.230469 137.96875 118.441406 137.222656 C 118.441406 137.222656 118.675781 139.59375 121.371094 140.359375 C 124.132812 140.847656 125.390625 138.863281 125.390625 138.863281 C 125.324219 139.574219 126.28125 141.253906 128.132812 141.824219 C 129.988281 142.359375 130.851562 140.945312 130.851562 140.945312 C 131.296875 142.140625 131.820312 142.859375 133.054688 143.382812 C 134.292969 143.871094 135.449219 143.878906 136.296875 142.957031 C 136.023438 143.683594 136.816406 145.226562 138.34375 145.621094 C 139.929688 146.191406 140.757812 145.628906 141.050781 144.9375 C 141.050781 144.9375 141.609375 147.050781 143.640625 147.695312 C 144.746094 148.054688 145.695312 147.816406 146.011719 147.164062 C 146.035156 147.070312 146.78125 149.230469 148.332031 149.53125 C 149.945312 149.84375 150.234375 147.070312 150.269531 146.914062 C 150.714844 136.207031 149.550781 133.851562 149.300781 133.792969 C 147.308594 133.683594 145.863281 130.566406 145.699219 130 Z M 154.636719 91.414062 C 155.417969 91.035156 156.648438 90.035156 157.09375 88.289062 C 157.269531 87.539062 157.257812 86.742188 157 86.019531 C 156.390625 84.253906 154.871094 83.402344 153.613281 83.136719 C 152.828125 82.953125 152.136719 82.953125 151.746094 83.0625 C 152.003906 82.394531 153.019531 78.929688 149.574219 75.871094 C 148.96875 75.363281 148.347656 75.050781 147.75 74.910156 C 146.21875 74.550781 144.820312 75.144531 144.363281 75.535156 C 144.410156 74.917969 144.429688 72.871094 141.992188 71.570312 C 141.609375 71.378906 141.28125 71.234375 140.921875 71.21875 C 138.933594 70.816406 137.363281 72.558594 136.957031 73.160156 C 136.964844 72.433594 136.722656 70.226562 134.078125 69.667969 C 133.828125 69.609375 133.640625 69.566406 133.3125 69.554688 C 130.242188 69.261719 129.542969 71.804688 129.375 72.792969 C 129.191406 72.023438 128.570312 70.453125 126.691406 70.011719 C 126.160156 69.882812 125.417969 69.808594 124.621094 69.953125 C 120.707031 70.582031 119.914062 75.054688 119.847656 75.765625 C 119.5625 75.433594 118.675781 74.699219 117.472656 74.480469 C 116.53125 74.257812 115.339844 74.40625 113.964844 75.339844 C 111.082031 78.03125 113.265625 82.214844 113.265625 82.214844 C 113.265625 82.214844 108.472656 82.769531 107.527344 86.648438 C 107.121094 88.371094 108.515625 91.574219 111.828125 92.519531 C 111.828125 92.519531 107.523438 92.132812 107.175781 96.117188 C 106.800781 100.097656 111.21875 101.402344 111.21875 101.402344 C 111.21875 101.402344 106.226562 103.367188 108.8125 107.117188 C 110.292969 109.25 112.195312 108.90625 113.589844 108.308594 C 113.652344 108.324219 113.683594 108.332031 113.746094 108.347656 C 114.53125 107.96875 115.101562 107.507812 115.347656 107.300781 C 115.472656 107.894531 116.015625 110.5 118.445312 111.703125 C 120.871094 112.902344 123.160156 112.023438 123.933594 110.847656 C 123.996094 110.863281 124.027344 110.871094 124.089844 110.886719 C 124.105469 110.824219 124.175781 110.804688 124.191406 110.742188 C 124.15625 111.726562 124.476562 114.152344 127.164062 114.949219 C 130.136719 115.816406 131.648438 113.460938 132.015625 112.753906 C 132.078125 112.769531 132.109375 112.777344 132.171875 112.792969 C 132.4375 113.484375 133.507812 115.816406 136.539062 116.003906 C 138.230469 116.105469 139.371094 115.347656 140.015625 114.574219 C 140.078125 114.589844 140.109375 114.597656 140.171875 114.613281 C 140.753906 113.957031 141.011719 113.289062 141.078125 113.007812 C 141.46875 113.730469 143.308594 116.445312 145.878906 116.058594 C 145.941406 116.074219 145.941406 116.074219 145.972656 116.082031 C 146.277344 116.054688 146.628906 115.96875 146.96875 115.785156 C 151.277344 113.925781 148.359375 110.164062 148.359375 110.164062 C 148.359375 110.164062 152.636719 109.984375 153.445312 106.96875 C 154.25 103.984375 152.261719 102.457031 152.261719 102.457031 C 152.261719 102.457031 156.449219 102.648438 157.648438 98.402344 C 158.890625 94.398438 154.636719 91.414062 154.636719 91.414062 Z M 157.167969 103.945312 C 156.941406 104.054688 156.757812 104.144531 156.539062 104.226562 C 156.667969 104.519531 156.828125 104.824219 156.894531 105.101562 C 156.898438 104.804688 157.0625 104.382812 157.167969 103.945312 Z M 160.433594 94.300781 C 160.359375 93.359375 160.074219 92.332031 159.53125 91.542969 C 159.371094 91.800781 159.140625 92.078125 158.886719 92.316406 C 159.550781 92.867188 160.074219 93.585938 160.433594 94.300781 Z M 179.367188 120.554688 L 171.785156 109.671875 C 170.25 107.492188 168.25 105.597656 165.859375 104.242188 C 162.917969 102.554688 161.117188 101.769531 160.015625 101.542969 C 159.625 102.078125 159.226562 102.511719 158.699219 102.917969 C 160.863281 107.0625 174.734375 119.164062 179.367188 120.554688 Z M 197.03125 126.539062 L 189.542969 118.191406 C 189.125 117.730469 188.601562 117.277344 188.035156 117.011719 L 174.21875 109.15625 C 176.953125 113.96875 180.839844 119.910156 185.960938 123.429688 C 191.957031 127.589844 197.546875 127.15625 197.03125 126.539062 Z M 215.164062 117.625 C 207.878906 117.691406 192.933594 116.710938 192.199219 117.726562 C 191.480469 118.816406 199.289062 125.085938 200.8125 125.777344 C 203.027344 126.761719 205.628906 127.078125 208.050781 126.492188 C 211.652344 125.65625 214.816406 124.15625 217.007812 121.035156 C 218.039062 119.59375 217 117.5625 215.164062 117.625 Z M 213.605469 110.082031 C 209.925781 108.585938 206.585938 108.59375 202.808594 108.066406 C 200.980469 107.832031 199.175781 107.902344 197.386719 108.207031 C 192.566406 109.152344 181.429688 109.136719 181.59375 110.699219 C 186.644531 116.75 205.414062 115.523438 215.15625 115.277344 C 216.953125 115.238281 217.757812 113.078125 216.421875 111.871094 C 215.539062 111.136719 214.523438 110.53125 213.605469 110.082031 Z M 221.445312 99.832031 C 220.265625 99.09375 218.9375 98.546875 217.539062 98.449219 C 204.75 97.316406 195.878906 97.503906 184.605469 97.226562 C 197.347656 108.792969 224.863281 107.914062 229.25 106.136719 C 229.753906 105.957031 225.058594 102.171875 221.445312 99.832031 Z M 243.949219 95.257812 C 242.824219 94 241.027344 93.476562 239.386719 93.984375 L 225.027344 97.96875 C 224.289062 98.15625 224.042969 99.058594 224.535156 99.636719 C 226.179688 101.480469 229.199219 103.546875 231.515625 104.09375 C 233.832031 104.640625 240.226562 102.347656 241.253906 101.628906 C 243.765625 99.808594 245.070312 97.074219 243.949219 95.257812 Z M 247.160156 83.320312 C 245.375 80.089844 240.234375 80.164062 235.992188 83.296875 C 234.359375 84.464844 234.398438 85.003906 236.03125 86.214844 C 242.242188 90.722656 246.019531 92.636719 247.644531 90.375 C 248.625 88.886719 248.914062 86.542969 247.160156 83.320312 Z M 151.53125 89.027344 C 151.011719 88.972656 150.550781 89.257812 150.460938 89.765625 C 150.136719 91.574219 148.679688 92.421875 147.40625 92.351562 C 146.015625 92.222656 145.179688 91.132812 145.191406 89.414062 C 145.214844 88.890625 144.777344 88.492188 144.25 88.5 C 143.726562 88.476562 143.324219 88.910156 143.332031 89.441406 C 143.335938 90.265625 141.734375 91.3125 139.90625 91.34375 C 138.589844 91.328125 136.414062 90.882812 136.355469 87.628906 C 136.316406 87.089844 135.882812 86.691406 135.414062 86.710938 C 134.875 86.75 134.476562 87.183594 134.496094 87.652344 C 134.5 88.347656 134.230469 88.78125 133.683594 89.148438 C 132.425781 89.84375 130.191406 89.515625 128.773438 88.519531 C 128.007812 87.972656 127.199219 87.054688 127.398438 85.648438 C 127.457031 85.132812 127.105469 84.652344 126.597656 84.566406 C 126.082031 84.511719 125.601562 84.859375 125.515625 85.371094 C 125.460938 85.886719 125.160156 86.179688 124.652344 86.355469 C 123.464844 86.769531 121.617188 86.203125 120.453125 85.101562 C 119.859375 84.53125 119.1875 83.613281 119.582031 82.351562 C 119.699219 81.847656 119.460938 81.328125 118.925781 81.203125 C 118.441406 81.023438 117.90625 81.328125 117.78125 81.859375 C 117.320312 83.535156 117.785156 85.199219 119.199219 86.492188 C 120.882812 88.046875 123.460938 88.753906 125.292969 88.128906 C 125.472656 88.070312 125.621094 88.007812 125.8125 87.886719 C 126.183594 88.699219 126.796875 89.472656 127.652344 90.039062 C 128.417969 90.582031 129.320312 90.960938 130.257812 91.183594 C 131.792969 91.546875 133.371094 91.453125 134.507812 90.828125 C 134.734375 90.71875 134.933594 90.566406 135.128906 90.445312 C 135.90625 92.050781 137.367188 93.289062 139.949219 93.269531 C 141.378906 93.242188 142.878906 92.769531 143.929688 91.960938 C 144.632812 93.449219 146.019531 94.171875 147.347656 94.289062 C 149.386719 94.472656 151.933594 93.054688 152.441406 90.199219 C 152.371094 89.65625 152.03125 89.144531 151.53125 89.027344 Z M 147.609375 102.980469 C 147.09375 102.921875 146.628906 103.210938 146.542969 103.71875 C 146.214844 105.527344 144.761719 106.371094 143.488281 106.304688 C 142.097656 106.175781 141.261719 105.085938 141.269531 103.367188 C 141.292969 102.84375 140.859375 102.445312 140.328125 102.453125 C 139.804688 102.425781 139.40625 102.863281 139.414062 103.390625 C 139.417969 104.21875 137.816406 105.261719 135.988281 105.296875 C 134.667969 105.28125 132.492188 104.835938 132.433594 101.582031 C 132.398438 101.042969 131.960938 100.644531 131.496094 100.664062 C 130.957031 100.703125 130.554688 101.136719 130.578125 101.605469 C 130.578125 102.300781 130.3125 102.734375 129.761719 103.097656 C 128.507812 103.796875 126.269531 103.464844 124.851562 102.46875 C 124.089844 101.925781 123.28125 101.007812 123.480469 99.601562 C 123.535156 99.085938 123.1875 98.605469 122.675781 98.519531 C 122.160156 98.464844 121.683594 98.8125 121.597656 99.320312 C 121.539062 99.835938 121.238281 100.128906 120.734375 100.308594 C 119.546875 100.722656 117.695312 100.152344 116.535156 99.054688 C 115.941406 98.484375 115.265625 97.5625 115.664062 96.300781 C 115.78125 95.800781 115.539062 95.28125 115.007812 95.15625 C 114.507812 95.039062 113.988281 95.277344 113.863281 95.8125 C 113.398438 97.488281 113.867188 99.152344 115.28125 100.445312 C 116.964844 101.996094 119.542969 102.703125 121.375 102.078125 C 121.554688 102.023438 121.699219 101.957031 121.894531 101.839844 C 122.265625 102.652344 122.875 103.425781 123.734375 103.992188 C 124.5 104.535156 125.402344 104.914062 126.339844 105.136719 C 127.875 105.496094 129.449219 105.40625 130.589844 104.78125 C 130.8125 104.667969 131.015625 104.519531 131.207031 104.398438 C 131.988281 106.003906 133.445312 107.242188 136.03125 107.222656 C 137.457031 107.195312 138.957031 106.722656 140.007812 105.914062 C 140.714844 107.402344 142.097656 108.125 143.425781 108.238281 C 145.464844 108.421875 148.015625 107.007812 148.523438 104.152344 C 148.453125 103.605469 148.109375 103.097656 147.609375 102.980469 Z M 147.609375 102.980469 " fill-opacity="1" fill-rule="nonzero"/></g></g></g></g></g></g></svg>