<svg xmlns="http://www.w3.org/2000/svg" xmlns:xlink="http://www.w3.org/1999/xlink" width="440" zoomAndPan="magnify" viewBox="0 0 330 97.5" height="130" preserveAspectRatio="xMidYMid meet" version="1.0"><defs><clipPath id="992f134188"><path d="M 28.515625 32.011719 L 74.777344 32.011719 L 74.777344 64.839844 L 28.515625 64.839844 Z M 28.515625 32.011719 " clip-rule="nonzero"/></clipPath></defs><g clip-path="url(#992f134188)"><path fill="#9f6e40" d="M 74.441406 45.710938 C 74.554688 42.746094 74.125 39.78125 73.921875 36.824219 C 73.839844 35.988281 73.753906 35.066406 73.648438 34.238281 C 73.511719 33.757812 73.046875 33.511719 72.695312 33.109375 C 72.703125 33.089844 72.710938 33.070312 72.714844 33.050781 C 72.695312 33.054688 72.671875 33.058594 72.648438 33.0625 C 72.640625 33.054688 72.632812 33.046875 72.625 33.039062 C 72.605469 33.058594 72.585938 33.078125 72.558594 33.078125 C 72.679688 32.996094 72.792969 32.886719 72.890625 32.730469 C 72.625 32.4375 72.246094 32.457031 71.914062 32.289062 C 71.429688 32.019531 70.957031 32.328125 70.449219 32.332031 C 70.449219 32.332031 67.703125 32.511719 67.703125 32.511719 C 66.976562 32.5625 66.25 32.546875 65.519531 32.480469 C 63.554688 32.417969 61.578125 32.667969 59.605469 32.617188 C 57.203125 32.753906 54.800781 32.921875 52.394531 32.699219 C 47.035156 32.582031 41.675781 32.816406 36.316406 32.980469 C 34.886719 33.007812 32.792969 33.035156 31.371094 33.101562 C 30.722656 33.207031 30.167969 33.699219 29.652344 34.09375 C 29.621094 34.089844 29.589844 34.082031 29.554688 34.078125 C 29.5625 34.191406 29.558594 34.285156 29.570312 34.371094 C 29.5 34.183594 29.402344 34.007812 29.277344 33.839844 C 28.925781 34.339844 28.960938 34.949219 28.789062 35.503906 C 28.515625 36.328125 28.839844 37.160156 28.863281 38.007812 C 28.933594 39.328125 29.113281 41.316406 29.199219 42.664062 C 29.421875 49.714844 29.621094 56.785156 29.480469 63.839844 C 29.488281 64.546875 30.316406 64.363281 30.792969 64.390625 C 34.078125 64.484375 37.355469 64.402344 40.632812 64.296875 C 42.9375 64.199219 45.210938 64.613281 47.535156 64.632812 C 52.339844 64.554688 57.132812 64.585938 61.953125 64.535156 C 65.796875 64.261719 69.835938 64.964844 73.355469 63.035156 C 73.433594 63.132812 73.539062 63.226562 73.699219 63.3125 C 73.984375 63.164062 74.007812 62.890625 74.191406 62.660156 C 74.492188 62.335938 74.210938 61.992188 74.234375 61.632812 C 74.234375 61.632812 74.195312 59.699219 74.195312 59.699219 C 74.492188 56.675781 74.347656 53.628906 74.292969 50.589844 C 74.488281 48.96875 74.542969 47.339844 74.441406 45.710938 Z M 72.183594 34.695312 C 72.519531 35.9375 72.585938 37.214844 72.714844 38.484375 C 72.894531 39.597656 73.078125 40.714844 73.136719 41.84375 C 73.273438 44.039062 73.050781 46.277344 73.117188 48.480469 C 73.125 51.328125 73.210938 54.175781 73.332031 57.023438 C 73.21875 58.589844 73.097656 60.15625 72.964844 61.722656 C 72.21875 61.277344 71.628906 60.65625 70.984375 60.082031 C 70.367188 59.617188 69.734375 59.160156 69.179688 58.621094 C 67.816406 57.273438 66.675781 55.714844 65.210938 54.457031 C 64.125 53.34375 62.878906 52.40625 61.671875 51.4375 C 60.871094 50.632812 60.152344 49.695312 59.269531 48.992188 C 61.878906 46.136719 64.480469 43.269531 67.121094 40.445312 C 68.730469 38.457031 70.945312 36.828125 72.164062 34.582031 C 72.167969 34.617188 72.171875 34.65625 72.183594 34.695312 Z M 30.828125 34.488281 C 31.992188 34.769531 33.195312 34.355469 34.382812 34.382812 C 36.992188 34.390625 39.585938 34.054688 42.191406 33.976562 C 45.363281 33.890625 48.53125 34.121094 51.703125 34.03125 C 55.789062 33.988281 59.867188 33.8125 63.941406 33.535156 C 65.210938 33.554688 66.480469 33.59375 67.75 33.546875 C 69.257812 33.535156 70.820312 33.808594 72.261719 33.230469 C 70.445312 34.273438 69.300781 36.03125 67.921875 37.558594 C 64.074219 41.636719 60.683594 46.160156 56.460938 49.871094 C 52.246094 53.933594 49.007812 52.511719 45.085938 49.023438 C 41.988281 46.433594 38.730469 43.9375 36.121094 40.832031 C 35.207031 39.847656 34.230469 38.785156 33.417969 37.71875 C 32.503906 36.535156 31.554688 35.277344 30.335938 34.390625 C 30.5 34.425781 30.667969 34.460938 30.828125 34.488281 Z M 29.753906 35.027344 C 29.722656 34.875 29.6875 34.726562 29.644531 34.582031 C 30.070312 35.816406 30.316406 36.101562 31.238281 36.992188 C 32.050781 37.929688 32.914062 38.890625 33.769531 39.785156 C 35.171875 41.265625 36.371094 42.925781 37.925781 44.269531 C 39.597656 45.792969 41.246094 47.457031 43.027344 48.855469 C 42.804688 48.921875 42.519531 48.933594 42.375 49.121094 C 41.882812 49.84375 41.226562 50.398438 40.621094 51.015625 C 39.902344 51.914062 39.148438 52.796875 38.289062 53.5625 C 36.621094 54.777344 35.273438 56.394531 33.9375 57.949219 C 32.914062 59.386719 31.902344 60.808594 30.664062 62.070312 C 30.84375 57.136719 30.460938 52.214844 30.394531 47.285156 C 30.394531 45.710938 30.292969 44.136719 30.234375 42.5625 C 30.136719 40.046875 30.285156 37.5 29.753906 35.027344 Z M 69.464844 62.726562 C 62.257812 63.425781 54.972656 63.367188 47.730469 63.378906 C 42.277344 62.746094 36.769531 63.007812 31.296875 63.234375 C 31.710938 62.617188 32.023438 61.914062 32.640625 61.460938 C 33.515625 60.4375 34.332031 59.347656 35.164062 58.277344 C 35.761719 57.417969 36.707031 56.917969 37.414062 56.160156 C 38.042969 55.359375 38.902344 54.800781 39.5625 54.035156 C 40.402344 53.058594 41.359375 52.183594 42.28125 51.285156 C 42.679688 50.914062 43.125 50.484375 43.523438 50.117188 C 43.679688 49.914062 43.585938 49.574219 43.59375 49.3125 C 44.660156 50.160156 45.75 51.03125 46.824219 51.863281 C 51.292969 55.285156 54.792969 53.539062 58.351562 49.933594 C 59.128906 50.339844 59.886719 50.9375 60.417969 51.652344 C 61.605469 52.886719 63.011719 53.914062 64.242188 55.109375 C 66.445312 57.992188 69.316406 60.273438 71.917969 62.789062 C 71.09375 62.746094 70.3125 62.640625 69.464844 62.726562 Z M 73.253906 62.960938 C 73.269531 62.960938 73.28125 62.957031 73.296875 62.957031 C 73.304688 62.96875 73.308594 62.980469 73.316406 62.992188 C 73.296875 62.980469 73.277344 62.972656 73.253906 62.960938 Z M 73.253906 62.960938 " fill-opacity="1" fill-rule="nonzero"/></g><path stroke-linecap="butt" transform="matrix(0, 0.746173, -0.746173, 0, 93.678687, 9.704795)" fill="none" stroke-linejoin="miter" d="M -0.00223762 0.998553 L 99.919027 0.998553 " stroke="#8d5524" stroke-width="2" stroke-opacity="1" stroke-miterlimit="4"/></svg>