<svg xmlns="http://www.w3.org/2000/svg" xmlns:xlink="http://www.w3.org/1999/xlink" width="82" zoomAndPan="magnify" viewBox="0 0 61.5 110.999996" height="148" preserveAspectRatio="xMidYMid meet" version="1.0"><defs><clipPath id="b3f4da0ad3"><path d="M 29 0.449219 L 34 0.449219 L 34 8 L 29 8 Z M 29 0.449219 " clip-rule="nonzero"/></clipPath><clipPath id="fffc318107"><path d="M 2 83 L 5 83 L 5 109.808594 L 2 109.808594 Z M 2 83 " clip-rule="nonzero"/></clipPath><clipPath id="7e704a866c"><path d="M 45 81 L 47 81 L 47 109.808594 L 45 109.808594 Z M 45 81 " clip-rule="nonzero"/></clipPath><clipPath id="e6ef5fbf35"><path d="M 14 80 L 46 80 L 46 109.808594 L 14 109.808594 Z M 14 80 " clip-rule="nonzero"/></clipPath><clipPath id="485e40d9ad"><path d="M 6 108 L 15 108 L 15 109.808594 L 6 109.808594 Z M 6 108 " clip-rule="nonzero"/></clipPath><clipPath id="4357144b21"><path d="M 47 108 L 58 108 L 58 109.808594 L 47 109.808594 Z M 47 108 " clip-rule="nonzero"/></clipPath><clipPath id="9dcc391576"><path d="M 51 83 L 61.003906 83 L 61.003906 84 L 51 84 Z M 51 83 " clip-rule="nonzero"/></clipPath></defs><path fill="#8d5524" d="M 42.015625 76.367188 C 42.578125 76.914062 43.070312 77.328125 43.109375 77.285156 C 43.152344 77.242188 43.046875 77.097656 42.878906 76.960938 C 42.710938 76.824219 42.570312 76.65625 42.570312 76.59375 C 42.570312 76.527344 42.464844 76.378906 42.332031 76.261719 C 42.199219 76.144531 41.835938 75.746094 41.527344 75.378906 C 40.375 74.007812 37.667969 70.863281 37.246094 70.398438 C 37.007812 70.136719 36.617188 69.679688 36.375 69.382812 C 36.136719 69.089844 35.878906 68.78125 35.804688 68.699219 C 35.730469 68.621094 35.457031 68.304688 35.203125 68.007812 C 34.679688 67.394531 32.949219 65.460938 32.117188 64.5625 C 31.613281 64.019531 31.089844 63.789062 31.089844 64.109375 C 31.089844 64.183594 31.292969 64.476562 31.546875 64.757812 C 31.796875 65.042969 32.148438 65.449219 32.332031 65.667969 C 32.511719 65.886719 33.113281 66.59375 33.667969 67.242188 C 34.222656 67.886719 34.832031 68.601562 35.023438 68.824219 C 36.574219 70.652344 40.527344 74.917969 42.015625 76.367188 Z M 42.015625 76.367188 " fill-opacity="1" fill-rule="nonzero"/><path fill="#8d5524" d="M 54.113281 91.597656 C 54.238281 91.398438 53.394531 91.175781 52.519531 91.175781 C 51.941406 91.175781 51.722656 91.222656 51.761719 91.34375 C 51.792969 91.433594 51.96875 91.550781 52.148438 91.601562 C 52.648438 91.742188 54.027344 91.738281 54.113281 91.597656 Z M 54.113281 91.597656 " fill-opacity="1" fill-rule="nonzero"/><path fill="#8d5524" d="M 54.890625 91.167969 C 55.09375 90.875 54.929688 88.878906 54.644531 88.109375 C 54.355469 87.34375 53.636719 86.6875 52.992188 86.605469 C 51.960938 86.472656 51.136719 87.074219 50.714844 88.269531 C 50.476562 88.957031 50.304688 90.511719 50.417969 90.972656 C 50.605469 91.714844 51.113281 91.21875 51.226562 90.183594 C 51.300781 89.515625 51.734375 88.28125 52.035156 87.894531 C 52.378906 87.453125 52.796875 87.222656 53.273438 87.214844 C 53.789062 87.210938 53.976562 87.6875 54.195312 89.570312 C 54.371094 91.0625 54.601562 91.59375 54.890625 91.167969 Z M 54.890625 91.167969 " fill-opacity="1" fill-rule="nonzero"/><path fill="#8d5524" d="M 48.859375 82.171875 C 49.121094 82.234375 50.722656 82.332031 52.414062 82.394531 C 57.703125 82.59375 59.554688 82.59375 59.488281 82.394531 C 59.410156 82.160156 58.46875 82.066406 54.941406 81.945312 C 51.703125 81.835938 48 81.972656 48.859375 82.171875 Z M 48.859375 82.171875 " fill-opacity="1" fill-rule="nonzero"/><path fill="#8d5524" d="M 32.421875 58.15625 C 33.320312 58.007812 32.839844 57.820312 31.566406 57.820312 C 30.574219 57.820312 30.269531 57.867188 30.269531 58.003906 C 30.269531 58.105469 30.296875 58.195312 30.359375 58.277344 C 30.445312 58.367188 31.515625 58.300781 32.421875 58.15625 Z M 32.421875 58.15625 " fill-opacity="1" fill-rule="nonzero"/><path fill="#8d5524" d="M 34.160156 59.574219 C 34.183594 59.550781 34.242188 57.867188 34.292969 55.832031 C 34.390625 51.863281 34.390625 51.863281 33.664062 49.464844 C 33.175781 47.863281 33.027344 47.703125 32.121094 47.808594 C 31.554688 47.871094 31.496094 47.902344 31.753906 48 C 31.949219 48.070312 32.140625 48.0625 32.328125 47.972656 C 32.472656 47.898438 32.59375 47.882812 32.59375 47.941406 C 32.609375 48.082031 32.640625 48.21875 32.679688 48.355469 C 32.757812 48.652344 32.730469 48.664062 31.800781 48.664062 C 30.796875 48.664062 30.40625 48.746094 30.40625 48.953125 C 30.40625 49.101562 31.5 49.101562 32.265625 48.953125 L 32.828125 48.84375 L 33.121094 50.15625 C 33.28125 50.875 33.414062 51.835938 33.414062 52.285156 L 33.414062 53.105469 L 29.3125 53.105469 L 29.3125 51.601562 L 30.234375 51.570312 C 31.5 51.523438 32.664062 51.277344 32.480469 51.09375 C 32.304688 50.917969 30.503906 50.875 29.878906 51.035156 C 29.441406 51.144531 29.425781 51.136719 29.519531 50.832031 C 29.554688 50.710938 29.59375 50.597656 29.640625 50.480469 C 29.660156 50.457031 29.839844 50.421875 31.429688 50.160156 C 32.726562 49.945312 32.882812 49.898438 32.785156 49.738281 C 32.691406 49.582031 30.261719 49.660156 29.996094 49.824219 C 29.761719 49.96875 29.84375 49.71875 30.257812 49.003906 C 30.910156 47.882812 31.386719 47.398438 31.835938 47.398438 C 32.207031 47.398438 32.214844 47.386719 31.976562 47.210938 C 31.34375 46.746094 30.882812 47.015625 30.027344 48.351562 C 28.957031 50.023438 28.582031 51.679688 28.601562 54.675781 C 28.613281 56.46875 28.671875 57.203125 28.929688 58.609375 C 29.230469 60.230469 29.34375 59.527344 29.269531 56.558594 L 29.195312 53.652344 L 30.847656 53.617188 C 31.757812 53.597656 32.707031 53.527344 32.957031 53.457031 L 33.414062 53.332031 L 33.421875 54.039062 C 33.425781 54.429688 33.457031 55.167969 33.488281 55.679688 L 33.542969 56.613281 L 33 56.523438 C 32.136719 56.378906 29.726562 56.394531 29.574219 56.546875 C 29.480469 56.640625 29.503906 56.742188 29.644531 56.855469 C 29.789062 56.976562 30.386719 57.023438 31.671875 57.011719 L 33.492188 56.992188 L 33.664062 57.851562 C 33.757812 58.324219 33.902344 58.914062 33.980469 59.164062 C 34.058594 59.414062 34.140625 59.597656 34.160156 59.574219 Z M 34.160156 59.574219 " fill-opacity="1" fill-rule="nonzero"/><path fill="#8d5524" d="M 32.3125 59.449219 C 33.464844 59.203125 33.003906 59.003906 31.46875 59.089844 C 30.0625 59.167969 29.90625 59.207031 30.058594 59.453125 C 30.175781 59.640625 31.429688 59.640625 32.3125 59.449219 Z M 32.3125 59.449219 " fill-opacity="1" fill-rule="nonzero"/><path fill="#8d5524" d="M 31.363281 54.273438 C 29.710938 54.273438 29.40625 54.34375 29.59375 54.695312 C 29.738281 54.96875 29.605469 54.964844 31.996094 54.742188 C 33.617188 54.59375 33.1875 54.273438 31.363281 54.273438 Z M 31.363281 54.273438 " fill-opacity="1" fill-rule="nonzero"/><path fill="#8d5524" d="M 19.144531 42.0625 C 19.191406 42.015625 19.328125 42.078125 19.449219 42.199219 C 19.679688 42.429688 22.746094 42.414062 39.761719 42.113281 C 40.917969 42.09375 40.285156 41.84375 38.53125 41.625 C 37.304688 41.472656 35.890625 41.4375 32.863281 41.480469 C 28.835938 41.535156 25.226562 41.675781 25.050781 41.777344 C 24.816406 41.914062 24.796875 41.507812 25.023438 41.292969 C 25.707031 40.605469 26.351562 39.882812 26.957031 39.128906 C 27.449219 38.5 28.628906 36.214844 28.628906 35.894531 C 28.625 35.785156 28.664062 35.695312 28.746094 35.621094 C 28.914062 35.515625 29.207031 34.035156 29.152344 33.554688 C 29.128906 33.332031 29.046875 33.15625 28.96875 33.167969 C 28.894531 33.175781 28.546875 33.871094 28.195312 34.707031 C 27.082031 37.375 25.921875 39.472656 24.8125 40.828125 C 24.617188 41.066406 24.367188 41.386719 24.253906 41.539062 C 24.0625 41.796875 23.875 41.820312 21.769531 41.855469 C 19.960938 41.890625 19.519531 41.863281 19.632812 41.726562 C 19.714844 41.628906 19.820312 41.570312 19.949219 41.554688 C 20.257812 41.554688 21.949219 39.738281 22.683594 38.617188 C 23.503906 37.367188 24.527344 35.574219 24.527344 35.390625 C 24.523438 35.3125 24.5625 35.269531 24.640625 35.265625 C 24.921875 35.265625 27.339844 29.171875 27.925781 26.996094 C 28.003906 26.695312 28.253906 25.835938 28.476562 25.082031 C 28.90625 23.636719 29.296875 22.160156 29.402344 21.605469 C 29.425781 21.453125 29.46875 21.304688 29.53125 21.160156 C 29.671875 20.9375 30.328125 16.953125 30.890625 12.917969 C 31.152344 11.023438 31.1875 9.339844 30.96875 9.121094 C 30.855469 9.007812 30.816406 9.089844 30.816406 9.441406 C 30.816406 9.699219 30.664062 10.652344 30.476562 11.550781 C 30.292969 12.453125 30.050781 13.746094 29.9375 14.421875 C 29.222656 18.746094 27.46875 25.179688 25.863281 29.390625 C 25.417969 30.554688 24.9375 31.835938 24.792969 32.234375 C 24.261719 33.726562 21.652344 38.347656 20.210938 40.347656 C 19.578125 41.222656 19.058594 41.988281 19.058594 42.042969 C 19.058594 42.101562 19.097656 42.109375 19.144531 42.0625 Z M 19.144531 42.0625 " fill-opacity="1" fill-rule="nonzero"/><path fill="#8d5524" d="M 23.460938 43.820312 C 23.359375 43.851562 23.316406 43.941406 23.363281 44.015625 C 23.515625 44.257812 32.703125 43.996094 38.242188 43.59375 C 38.328125 43.585938 38.21875 43.523438 37.992188 43.453125 C 37.75 43.378906 36.28125 43.355469 34.4375 43.402344 C 32.707031 43.449219 30.09375 43.507812 28.628906 43.53125 C 26.070312 43.578125 23.839844 43.703125 23.460938 43.820312 Z M 23.460938 43.820312 " fill-opacity="1" fill-rule="nonzero"/><path fill="#8d5524" d="M 30.570312 55.445312 C 30.269531 55.503906 30.175781 55.585938 30.230469 55.734375 C 30.296875 55.910156 30.535156 55.929688 31.742188 55.855469 C 33.257812 55.761719 33.707031 55.640625 33.136719 55.484375 C 32.699219 55.359375 31.105469 55.335938 30.570312 55.445312 Z M 30.570312 55.445312 " fill-opacity="1" fill-rule="nonzero"/><path fill="#8d5524" d="M 31.453125 52.199219 C 30.714844 52.214844 30.605469 52.257812 30.742188 52.480469 C 30.851562 52.660156 32.546875 52.675781 32.65625 52.5 C 32.769531 52.316406 32.230469 52.179688 31.453125 52.199219 Z M 31.453125 52.199219 " fill-opacity="1" fill-rule="nonzero"/><path fill="#8d5524" d="M 32.871094 67.117188 C 32.242188 66.171875 31.652344 65.476562 31.480469 65.476562 C 31.375 65.476562 32.507812 67.203125 33.320312 68.28125 C 33.546875 68.578125 34.105469 69.210938 34.558594 69.679688 C 35.015625 70.148438 35.410156 70.535156 35.441406 70.535156 C 35.488281 70.535156 34.554688 69.335938 34.375 69.167969 C 34.199219 69.003906 33.414062 67.933594 32.871094 67.117188 Z M 32.871094 67.117188 " fill-opacity="1" fill-rule="nonzero"/><path fill="#8d5524" d="M 20.152344 75.183594 C 20.039062 75.253906 20.015625 75.316406 20.09375 75.316406 C 20.175781 75.316406 20.542969 75.042969 20.914062 74.703125 C 21.339844 74.308594 21.5 74.089844 21.355469 74.089844 C 21.230469 74.089844 20.902344 74.304688 20.621094 74.566406 C 20.34375 74.832031 20.167969 75.046875 20.234375 75.046875 C 20.304688 75.050781 20.265625 75.109375 20.152344 75.183594 Z M 20.152344 75.183594 " fill-opacity="1" fill-rule="nonzero"/><path fill="#8d5524" d="M 31.144531 85.757812 C 30.988281 86.164062 31.179688 91.367188 31.351562 91.421875 C 31.394531 91.4375 31.417969 91.464844 31.433594 91.507812 C 31.445312 91.546875 31.4375 91.585938 31.410156 91.617188 C 31.355469 91.710938 31.386719 91.726562 31.492188 91.65625 C 31.628906 91.574219 31.644531 90.949219 31.570312 88.730469 C 31.472656 85.984375 31.359375 85.199219 31.144531 85.757812 Z M 31.144531 85.757812 " fill-opacity="1" fill-rule="nonzero"/><path fill="#8d5524" d="M 25.832031 92.144531 C 25.929688 92.300781 34.324219 92.238281 34.675781 92.078125 C 34.808594 92.015625 34.882812 91.917969 34.847656 91.859375 C 34.777344 91.746094 27.351562 91.816406 26.335938 91.941406 C 26.015625 91.980469 25.789062 92.074219 25.832031 92.144531 Z M 25.832031 92.144531 " fill-opacity="1" fill-rule="nonzero"/><path fill="#8d5524" d="M 47.082031 79.839844 C 47.195312 79.984375 47.320312 80.117188 47.453125 80.238281 C 47.59375 80.246094 47.148438 79.515625 46.597656 78.839844 C 45.746094 77.792969 43.65625 75.308594 43.433594 75.078125 C 43.34375 74.980469 43.035156 74.613281 42.75 74.257812 C 42.460938 73.902344 42.195312 73.578125 42.152344 73.542969 C 42.113281 73.503906 41.148438 72.367188 40.011719 71.011719 C 38.871094 69.660156 37.746094 68.335938 37.511719 68.074219 C 37.273438 67.8125 36.890625 67.378906 36.65625 67.117188 C 36.425781 66.855469 35.644531 65.992188 34.925781 65.203125 C 34.207031 64.414062 33.132812 63.226562 32.539062 62.566406 C 31.800781 61.742188 31.335938 61.335938 31.070312 61.285156 C 30.855469 61.242188 30.679688 61.152344 30.679688 61.085938 C 30.679688 61.007812 30.636719 60.964844 30.558594 60.964844 C 30.492188 60.964844 28.324219 63.058594 25.742188 65.617188 C 23.15625 68.171875 20.261719 71.035156 19.308594 71.976562 C 17.269531 73.988281 15.25 76.355469 13.949219 78.257812 C 13.023438 79.605469 13.269531 79.480469 14.488281 77.980469 C 14.785156 77.613281 15.117188 77.210938 15.230469 77.089844 C 15.34375 76.96875 15.714844 76.519531 16.050781 76.097656 C 16.390625 75.675781 18.074219 73.957031 19.796875 72.28125 C 25.519531 66.707031 29.808594 62.40625 30.222656 61.832031 C 30.449219 61.519531 30.691406 61.304688 30.761719 61.355469 C 30.882812 61.433594 31.445312 62.121094 32.476562 63.441406 C 32.847656 63.914062 33.148438 64.269531 33.796875 65 C 34.316406 65.585938 37.921875 69.699219 38.332031 70.175781 C 38.519531 70.394531 38.738281 70.640625 38.8125 70.726562 C 38.886719 70.808594 39.320312 71.308594 39.769531 71.832031 C 40.21875 72.359375 40.621094 72.820312 40.65625 72.859375 C 40.695312 72.894531 41 73.234375 41.332031 73.609375 C 42.570312 75.007812 44.453125 77.054688 45.578125 78.230469 C 46.21875 78.898438 46.894531 79.621094 47.082031 79.839844 Z M 47.082031 79.839844 " fill-opacity="1" fill-rule="nonzero"/><path fill="#8d5524" d="M 30.875 63.570312 C 30.707031 63.402344 30.292969 63.710938 28.769531 65.152344 C 28.203125 65.6875 27.40625 66.421875 27 66.792969 C 24.789062 68.789062 22.242188 71.277344 20.152344 73.496094 C 18.332031 75.425781 16.691406 77.234375 16.480469 77.546875 C 16.375 77.703125 16.25 77.839844 16.101562 77.953125 C 15.917969 78.113281 15.757812 78.296875 15.625 78.5 L 15.316406 78.941406 L 15.648438 78.667969 C 15.828125 78.519531 17.855469 76.519531 20.148438 74.226562 C 22.445312 71.933594 25.183594 69.257812 26.234375 68.28125 C 29.800781 64.96875 31.027344 63.722656 30.875 63.570312 Z M 30.875 63.570312 " fill-opacity="1" fill-rule="nonzero"/><path fill="#8d5524" d="M 22.546875 72.707031 L 22.140625 73.171875 L 22.546875 72.960938 C 23.117188 72.667969 24.800781 71.097656 24.800781 70.863281 C 24.8125 70.75 24.761719 70.6875 24.644531 70.671875 C 24.496094 70.671875 23.40625 71.730469 22.546875 72.707031 Z M 22.546875 72.707031 " fill-opacity="1" fill-rule="nonzero"/><path fill="#8d5524" d="M 25.347656 70.1875 C 25.347656 70.335938 27.421875 68.699219 28.21875 67.921875 C 29.6875 66.488281 30.6875 65.203125 30.328125 65.203125 C 30.21875 65.203125 25.347656 70.078125 25.347656 70.1875 Z M 25.347656 70.1875 " fill-opacity="1" fill-rule="nonzero"/><path fill="#8d5524" d="M 41.289062 43.769531 C 41.414062 43.96875 41.566406 43.882812 42.070312 43.320312 C 42.582031 42.75 42.683594 42.460938 42.425781 42.300781 C 42.132812 42.121094 41.097656 43.460938 41.289062 43.769531 Z M 41.289062 43.769531 " fill-opacity="1" fill-rule="nonzero"/><path fill="#8d5524" d="M 32.371094 13.53125 C 32.152344 13.53125 32.117188 13.75 32.320312 13.875 C 32.394531 13.921875 32.457031 14.257812 32.457031 14.625 C 32.480469 15.164062 32.550781 15.699219 32.671875 16.222656 C 32.792969 16.734375 32.941406 17.460938 33.007812 17.839844 C 33.070312 18.214844 33.25 19.105469 33.40625 19.820312 C 33.5625 20.535156 33.8125 21.828125 33.960938 22.691406 C 34.113281 23.554688 34.320312 24.570312 34.425781 24.945312 C 34.53125 25.324219 34.789062 26.246094 35 26.996094 C 35.726562 29.59375 37.78125 34.179688 39.460938 36.949219 C 40.09375 37.992188 40.964844 39.105469 41.601562 39.679688 C 41.910156 39.960938 42.199219 40.1875 42.242188 40.1875 C 42.285156 40.1875 42.109375 39.894531 41.847656 39.539062 C 40.914062 38.257812 40.621094 37.773438 39.839844 36.222656 C 37.339844 31.253906 35.71875 26.652344 34.972656 22.417969 C 34.890625 21.960938 34.734375 21.351562 33.828125 17.976562 C 32.601562 13.425781 32.636719 13.53125 32.371094 13.53125 Z M 32.371094 13.53125 " fill-opacity="1" fill-rule="nonzero"/><path fill="#8d5524" d="M 43.851562 73.789062 C 43.796875 73.710938 43.757812 73.625 43.734375 73.535156 C 43.734375 73.492188 43.496094 73.109375 43.203125 72.6875 C 42.871094 72.207031 42.605469 71.949219 42.488281 71.996094 C 42.277344 72.074219 42.519531 72.480469 43.382812 73.496094 C 43.835938 74.023438 44.109375 74.199219 43.851562 73.789062 Z M 43.851562 73.789062 " fill-opacity="1" fill-rule="nonzero"/><path fill="#8d5524" d="M 11.4375 71.226562 C 11.8125 70.691406 14.148438 68.21875 16.734375 65.613281 C 19.558594 62.773438 21.117188 60.917969 20.878906 60.683594 C 20.789062 60.589844 20.433594 60.894531 19.804688 61.609375 C 19.285156 62.195312 18 63.566406 16.945312 64.65625 C 13.792969 67.917969 12.375 69.511719 11.539062 70.738281 C 11.339844 71.046875 11.117188 71.335938 10.863281 71.601562 C 10.683594 71.753906 10.699219 71.757812 10.953125 71.636719 C 11.144531 71.535156 11.304688 71.398438 11.4375 71.226562 Z M 11.4375 71.226562 " fill-opacity="1" fill-rule="nonzero"/><path fill="#8d5524" d="M 44.757812 65.199219 C 45.511719 66.117188 47.34375 68.230469 47.546875 68.417969 C 47.789062 68.636719 49.964844 71.070312 50.777344 72.03125 C 51.1875 72.515625 51.648438 73.039062 51.796875 73.199219 C 52.585938 74.023438 55.660156 77.328125 56.660156 78.425781 C 57.6875 79.550781 58.21875 80.007812 57.933594 79.523438 C 57.796875 79.292969 56.25 77.398438 55.152344 76.128906 C 54.660156 75.558594 53.949219 74.734375 53.574219 74.296875 C 53.199219 73.855469 52.828125 73.429688 52.753906 73.347656 C 52.675781 73.265625 52.308594 72.832031 51.933594 72.378906 C 50.675781 70.867188 49.371094 69.382812 47.898438 67.800781 C 47.097656 66.9375 46.203125 65.953125 45.910156 65.613281 C 45.621094 65.277344 44.796875 64.414062 44.082031 63.699219 C 43.082031 62.699219 42.773438 62.457031 42.734375 62.648438 C 42.703125 62.804688 42.957031 63.1875 43.414062 63.675781 C 43.816406 64.101562 44.417969 64.789062 44.757812 65.199219 Z M 44.757812 65.199219 " fill-opacity="1" fill-rule="nonzero"/><path fill="#8d5524" d="M 17.292969 66.269531 C 16.902344 66.671875 16.742188 66.769531 16.710938 66.613281 C 16.683594 66.480469 16.332031 66.804688 15.746094 67.507812 C 15.238281 68.113281 14.820312 68.652344 14.820312 68.703125 C 14.820312 68.753906 15.082031 68.5 15.402344 68.132812 C 16.070312 67.371094 16.570312 66.914062 16.734375 66.914062 C 16.917969 66.914062 18.007812 65.882812 17.917969 65.792969 C 17.871094 65.75 17.589844 65.960938 17.292969 66.269531 Z M 17.292969 66.269531 " fill-opacity="1" fill-rule="nonzero"/><path fill="#8d5524" d="M 13.023438 80.363281 C 12.636719 80.160156 12.710938 80.449219 13.148438 80.851562 C 13.351562 81.042969 13.542969 81.136719 13.570312 81.058594 C 13.628906 80.882812 13.359375 80.546875 13.023438 80.363281 Z M 13.023438 80.363281 " fill-opacity="1" fill-rule="nonzero"/><path fill="#8d5524" d="M 52.375 80.96875 C 52.441406 80.773438 52.097656 80.65625 51.347656 80.628906 C 51.03125 80.617188 50.773438 80.558594 50.773438 80.503906 C 50.773438 80.449219 50.648438 80.433594 50.5 80.472656 C 49.964844 80.613281 50.21875 80.890625 51.011719 81.03125 C 51.960938 81.195312 52.304688 81.179688 52.375 80.96875 Z M 52.375 80.96875 " fill-opacity="1" fill-rule="nonzero"/><path fill="#8d5524" d="M 58.550781 80.300781 C 58.585938 80.261719 58.503906 80.128906 58.371094 79.996094 C 58.136719 79.773438 58.132812 79.773438 58.304688 80.0625 C 58.40625 80.230469 58.515625 80.335938 58.550781 80.300781 Z M 58.550781 80.300781 " fill-opacity="1" fill-rule="nonzero"/><path fill="#8d5524" d="M 17.667969 72.1875 C 17.570312 72.246094 17.507812 72.332031 17.488281 72.449219 C 17.460938 72.570312 17.390625 72.664062 17.28125 72.726562 C 17.167969 72.796875 17.132812 72.855469 17.203125 72.855469 C 17.414062 72.859375 20.03125 70.222656 20.4375 69.59375 C 20.800781 69.035156 20.84375 68.757812 20.574219 68.757812 C 20.511719 68.757812 20.304688 68.988281 20.113281 69.269531 C 19.851562 69.640625 19.566406 69.992188 19.257812 70.328125 C 18.125 71.554688 17.878906 71.839844 17.867188 71.953125 C 17.832031 72.058594 17.765625 72.136719 17.667969 72.1875 Z M 17.667969 72.1875 " fill-opacity="1" fill-rule="nonzero"/><path fill="#8d5524" d="M 41.511719 65.714844 C 41.550781 67.519531 41.625 68.328125 41.800781 68.859375 C 42.058594 69.65625 42.355469 69.84375 42.230469 69.132812 C 42.167969 68.757812 42.082031 66.542969 42.035156 63.9375 C 42.027344 63.375 41.988281 63.289062 41.738281 63.289062 C 41.460938 63.289062 41.457031 63.332031 41.511719 65.714844 Z M 41.511719 65.714844 " fill-opacity="1" fill-rule="nonzero"/><g clip-path="url(#b3f4da0ad3)"><path fill="#8d5524" d="M 30.46875 3.0625 L 30.785156 2.984375 L 30.835938 5.167969 C 30.878906 7.082031 30.914062 7.386719 31.144531 7.640625 C 31.46875 8 31.585938 8 31.773438 7.652344 C 31.902344 7.414062 31.894531 6.292969 31.75 3.621094 C 31.710938 2.902344 31.742188 2.871094 32.449219 2.871094 C 33.191406 2.871094 33.363281 2.738281 33.144531 2.332031 C 33.035156 2.128906 32.832031 2.054688 32.285156 2.023438 L 31.566406 1.980469 L 31.527344 1.277344 C 31.5 0.792969 31.417969 0.542969 31.273438 0.488281 C 30.914062 0.351562 30.816406 0.535156 30.816406 1.355469 L 30.816406 2.148438 L 30.113281 2.230469 C 29.300781 2.328125 29.273438 2.34375 29.394531 2.65625 C 29.511719 2.957031 30.058594 3.167969 30.46875 3.0625 Z M 30.46875 3.0625 " fill-opacity="1" fill-rule="nonzero"/></g><path fill="#8d5524" d="M 27.675781 39.960938 C 27.679688 40.242188 27.695312 40.238281 28.015625 39.875 C 28.332031 39.515625 28.484375 38.820312 28.253906 38.820312 C 28.085938 38.824219 27.671875 39.640625 27.675781 39.960938 Z M 27.675781 39.960938 " fill-opacity="1" fill-rule="nonzero"/><path fill="#8d5524" d="M 36.507812 40.554688 C 36.539062 40.523438 36.285156 39.753906 35.941406 38.839844 C 35.304688 37.132812 34.78125 35.207031 34.78125 34.554688 C 34.792969 34.328125 34.699219 34.15625 34.507812 34.035156 C 34.25 33.898438 34.234375 33.933594 34.234375 34.558594 C 34.234375 35.890625 35.097656 38.496094 36.015625 39.925781 C 36.257812 40.300781 36.480469 40.585938 36.507812 40.554688 Z M 36.507812 40.554688 " fill-opacity="1" fill-rule="nonzero"/><path fill="#8d5524" d="M 34.253906 37.566406 C 34.28125 37.625 34.511719 38.144531 34.765625 38.722656 C 35.023438 39.296875 35.285156 39.734375 35.347656 39.695312 C 35.523438 39.589844 34.554688 37.453125 34.332031 37.453125 C 34.300781 37.449219 34.277344 37.460938 34.257812 37.488281 C 34.242188 37.511719 34.242188 37.539062 34.253906 37.566406 Z M 34.253906 37.566406 " fill-opacity="1" fill-rule="nonzero"/><path fill="#8d5524" d="M 21.589844 65.75 C 21.425781 65.75 21.382812 65.953125 21.382812 66.757812 C 21.378906 67.25 21.410156 67.734375 21.472656 68.222656 C 21.621094 68.957031 21.773438 68.335938 21.785156 66.945312 C 21.792969 65.96875 21.753906 65.75 21.589844 65.75 Z M 21.589844 65.75 " fill-opacity="1" fill-rule="nonzero"/><path fill="#8d5524" d="M 22.246094 60.777344 C 22.261719 57.28125 22.207031 56.816406 21.789062 57.070312 C 21.667969 57.148438 21.644531 58.011719 21.695312 60.539062 C 21.734375 62.390625 21.8125 64.046875 21.867188 64.222656 C 22.125 65.03125 22.230469 64.066406 22.246094 60.777344 Z M 22.246094 60.777344 " fill-opacity="1" fill-rule="nonzero"/><path fill="#8d5524" d="M 21.710938 49.003906 C 21.769531 52.449219 21.925781 54.734375 22.132812 55.328125 C 22.167969 55.421875 22.214844 55.5 22.238281 55.5 C 22.261719 55.5 22.296875 54.375 22.316406 53.003906 C 22.339844 51.632812 22.378906 49.957031 22.40625 49.277344 C 22.476562 47.59375 22.292969 45.007812 22.085938 44.800781 C 21.695312 44.410156 21.640625 45.03125 21.710938 49.003906 Z M 21.710938 49.003906 " fill-opacity="1" fill-rule="nonzero"/><path fill="#8d5524" d="M 25.175781 42.996094 C 24.253906 43.042969 23.347656 43.105469 23.160156 43.128906 C 22.972656 43.152344 22.707031 43.179688 22.570312 43.183594 C 22.433594 43.191406 22.363281 43.257812 22.410156 43.332031 C 22.511719 43.503906 23.265625 43.488281 25.621094 43.277344 C 27.917969 43.074219 27.59375 42.863281 25.175781 42.996094 Z M 25.175781 42.996094 " fill-opacity="1" fill-rule="nonzero"/><path fill="#8d5524" d="M 38.253906 67.328125 C 38.070312 66.996094 37.785156 66.894531 37.785156 67.15625 C 37.785156 67.265625 38.195312 67.808594 38.695312 68.363281 C 39.191406 68.917969 40.308594 70.328125 41.167969 71.492188 C 42.03125 72.65625 42.929688 73.808594 43.160156 74.054688 C 43.390625 74.300781 43.605469 74.5 43.640625 74.5 C 43.851562 74.5 40.433594 69.816406 39.371094 68.652344 C 38.839844 68.066406 38.335938 67.472656 38.253906 67.328125 Z M 38.253906 67.328125 " fill-opacity="1" fill-rule="nonzero"/><path fill="#8d5524" d="M 35.75 31.578125 C 35.816406 31.578125 35.878906 31.683594 35.882812 31.816406 C 35.890625 31.945312 35.921875 31.992188 35.953125 31.910156 C 35.988281 31.832031 35.886719 31.402344 35.726562 30.953125 C 35.042969 29.003906 34.371094 26.878906 34.371094 26.671875 C 34.371094 26.550781 34.179688 25.789062 33.941406 24.980469 C 33.585938 23.765625 33.46875 23.511719 33.25 23.511719 C 33.0625 23.511719 33.003906 23.582031 33.050781 23.75 C 33.085938 23.882812 33.152344 24.203125 33.195312 24.46875 C 33.386719 25.601562 33.890625 27.714844 34.121094 28.363281 C 34.414062 29.183594 35.628906 31.578125 35.75 31.578125 Z M 35.75 31.578125 " fill-opacity="1" fill-rule="nonzero"/><path fill="#8d5524" d="M 37.101562 44.238281 C 35.34375 44.316406 34.78125 44.398438 34.78125 44.570312 C 34.78125 44.742188 35.589844 44.734375 37.5 44.539062 C 39.4375 44.34375 39.171875 44.140625 37.101562 44.238281 Z M 37.101562 44.238281 " fill-opacity="1" fill-rule="nonzero"/><path fill="#8d5524" d="M 41.425781 45.109375 C 41.265625 45.109375 41.214844 45.445312 41.164062 46.785156 C 41.101562 48.425781 41.171875 54.355469 41.261719 55.429688 C 41.289062 55.730469 41.324219 56.59375 41.339844 57.34375 C 41.355469 58.09375 41.402344 59.222656 41.445312 59.851562 C 41.484375 60.480469 41.5625 60.910156 41.617188 60.808594 C 41.800781 60.464844 41.890625 57.5 41.894531 51.664062 C 41.902344 45.84375 41.847656 45.109375 41.425781 45.109375 Z M 41.425781 45.109375 " fill-opacity="1" fill-rule="nonzero"/><path fill="#8d5524" d="M 33.277344 43.058594 C 33.164062 42.984375 32.761719 42.925781 32.386719 42.921875 C 31.839844 42.90625 31.296875 42.855469 30.757812 42.78125 C 29.597656 42.613281 29.191406 42.832031 30.289062 43.03125 C 31.289062 43.210938 33.546875 43.234375 33.277344 43.058594 Z M 33.277344 43.058594 " fill-opacity="1" fill-rule="nonzero"/><path fill="#8d5524" d="M 33.914062 35.675781 C 33.996094 35.238281 33.339844 31.53125 33.171875 31.472656 C 32.796875 31.347656 33.070312 33.757812 33.582031 35.101562 C 33.742188 35.53125 33.894531 35.789062 33.914062 35.675781 Z M 33.914062 35.675781 " fill-opacity="1" fill-rule="nonzero"/><path fill="#8d5524" d="M 20.425781 42.921875 C 20.609375 43.195312 20.816406 43.445312 21.050781 43.675781 C 21.878906 44.503906 21.988281 44.160156 21.210938 43.160156 C 20.78125 42.605469 20.15625 42.414062 20.425781 42.921875 Z M 20.425781 42.921875 " fill-opacity="1" fill-rule="nonzero"/><path fill="#8d5524" d="M 8.355469 74.429688 C 8.640625 74.054688 9.042969 73.5625 9.25 73.335938 C 9.644531 72.90625 9.71875 72.65625 9.492188 72.515625 C 9.414062 72.46875 9.355469 72.496094 9.355469 72.578125 C 9.335938 72.6875 9.273438 72.734375 9.164062 72.722656 C 9.058594 72.722656 8.230469 73.597656 7.320312 74.671875 C 4.726562 77.734375 4.195312 78.355469 3.667969 78.941406 C 3.433594 79.195312 3.222656 79.46875 3.035156 79.757812 C 2.542969 80.660156 7.015625 76.183594 8.355469 74.429688 Z M 8.355469 74.429688 " fill-opacity="1" fill-rule="nonzero"/><path fill="#8d5524" d="M 11.238281 91.578125 C 11.695312 91.84375 11.703125 91.832031 11.71875 90.492188 C 11.738281 89.035156 11.535156 87.910156 11.175781 87.480469 C 9.890625 85.953125 7.875 86.652344 7.222656 88.847656 C 6.96875 89.710938 6.921875 91.125 7.144531 91.34375 C 7.378906 91.578125 7.503906 91.359375 7.695312 90.375 C 8.03125 88.675781 8.890625 87.367188 9.835938 87.128906 C 10.503906 86.960938 10.6875 87.386719 10.804688 89.398438 C 10.898438 91.050781 10.972656 91.421875 11.238281 91.578125 Z M 11.238281 91.578125 " fill-opacity="1" fill-rule="nonzero"/><path fill="#8d5524" d="M 14.484375 104.800781 C 14.601562 104.183594 14.519531 103.582031 14.308594 103.511719 C 14.183594 103.472656 14.136719 103.695312 14.136719 104.355469 C 14.136719 105.308594 14.339844 105.566406 14.484375 104.800781 Z M 14.484375 104.800781 " fill-opacity="1" fill-rule="nonzero"/><g clip-path="url(#fffc318107)"><path fill="#8d5524" d="M 3.949219 99.515625 C 3.894531 95.277344 3.777344 92.015625 3.667969 91.839844 C 3.636719 91.789062 3.578125 89.945312 3.53125 87.738281 C 3.488281 85.53125 3.429688 83.648438 3.402344 83.554688 C 3.285156 83.1875 2.9375 83.394531 2.832031 83.898438 C 2.695312 84.546875 2.691406 91.003906 2.828125 93.089844 C 2.882812 93.953125 2.960938 95.863281 3 97.328125 C 3.082031 100.511719 3.191406 103.070312 3.261719 103.425781 C 3.285156 103.566406 3.378906 104.269531 3.46875 104.984375 C 3.59375 106.023438 4.144531 108.390625 4.511719 109.480469 C 4.546875 109.582031 4.609375 109.636719 4.648438 109.597656 C 4.707031 109.539062 4.363281 106.351562 4.082031 104.367188 C 4.039062 104.066406 3.980469 101.882812 3.949219 99.515625 Z M 3.949219 99.515625 " fill-opacity="1" fill-rule="nonzero"/></g><g clip-path="url(#7e704a866c)"><path fill="#8d5524" d="M 46.230469 101.15625 C 46.238281 100.289062 46.285156 95.675781 46.328125 90.902344 C 46.402344 82.878906 46.363281 81.597656 46.070312 81.890625 C 46 81.960938 45.898438 86.289062 45.773438 94.523438 C 45.738281 96.628906 45.667969 99.152344 45.609375 100.128906 C 45.554688 101.085938 45.550781 102.042969 45.601562 103 C 45.652344 103.601562 45.738281 105.292969 45.792969 106.757812 C 45.855469 108.460938 45.945312 109.460938 46.042969 109.527344 C 46.125 109.582031 46.214844 109.617188 46.316406 109.628906 C 46.390625 109.628906 46.390625 108.214844 46.324219 106.179688 C 46.261719 104.28125 46.21875 102.019531 46.230469 101.15625 Z M 46.230469 101.15625 " fill-opacity="1" fill-rule="nonzero"/></g><path fill="#8d5524" d="M 14.332031 92.078125 C 14.167969 92.015625 14.140625 92.445312 14.152344 94.90625 C 14.164062 97.789062 14.316406 100.269531 14.511719 100.804688 C 14.648438 101.167969 14.800781 97.332031 14.761719 94.660156 C 14.730469 92.5625 14.671875 92.210938 14.332031 92.078125 Z M 14.332031 92.078125 " fill-opacity="1" fill-rule="nonzero"/><g clip-path="url(#e6ef5fbf35)"><path fill="#8d5524" d="M 42.632812 109.335938 C 41.207031 109.324219 39.828125 109.304688 39.5625 109.292969 C 39.300781 109.285156 38.714844 109.261719 38.261719 109.246094 L 37.441406 109.21875 L 37.441406 105.359375 C 37.445312 103.234375 37.394531 100.789062 37.332031 99.925781 C 37.265625 99.058594 37.191406 97.984375 37.160156 97.53125 C 37.132812 97.082031 37.082031 96.34375 37.046875 95.890625 C 37.015625 95.441406 36.945312 94.121094 36.886719 92.957031 C 36.832031 91.792969 36.6875 90.433594 36.5625 89.9375 C 36.082031 87.996094 33.726562 84.824219 32.324219 84.222656 C 31.933594 84.054688 31.511719 83.9375 31.386719 83.964844 C 31.257812 83.992188 31.464844 84.117188 31.847656 84.25 C 32.574219 84.496094 33.074219 84.941406 34.078125 86.238281 C 35.382812 87.917969 35.96875 89.257812 36.085938 90.828125 C 36.125 91.359375 36.21875 92.34375 36.292969 93.023438 C 36.445312 94.445312 36.527344 95.429688 36.625 97.054688 C 36.664062 97.691406 36.761719 99.140625 36.839844 100.265625 C 36.976562 102.207031 37.027344 109.070312 36.90625 109.191406 C 36.875 109.222656 36.609375 109.207031 36.320312 109.160156 L 35.792969 109.070312 L 35.824219 108.015625 C 35.839844 107.4375 35.894531 106.472656 35.9375 105.871094 C 36.074219 104.074219 36.042969 96.972656 35.886719 95.207031 C 35.667969 92.703125 35.222656 89.945312 34.960938 89.488281 C 34.113281 87.996094 32.546875 85.976562 32.019531 85.695312 C 31.871094 85.613281 32.015625 85.832031 32.339844 86.179688 C 32.867188 86.734375 33.695312 87.9375 34.304688 89.023438 C 34.503906 89.382812 35.1875 92.390625 35.191406 92.910156 C 35.191406 93.097656 35.082031 93.160156 34.746094 93.164062 C 34.5 93.167969 32.367188 93.183594 30 93.199219 C 27.335938 93.214844 25.753906 93.273438 25.832031 93.355469 C 25.902344 93.425781 26.792969 93.496094 27.808594 93.515625 C 28.824219 93.53125 29.761719 93.574219 29.894531 93.609375 C 30.121094 93.664062 30.136719 93.976562 30.117188 98.265625 C 30.105469 100.796875 30.136719 103.417969 30.183594 104.09375 C 30.230469 104.769531 30.300781 106.171875 30.335938 107.203125 L 30.402344 109.082031 L 26.070312 109.082031 L 25.96875 108.230469 C 25.910156 107.757812 25.839844 105.898438 25.804688 104.09375 C 25.769531 102.289062 25.722656 100.320312 25.695312 99.71875 C 25.480469 94.648438 25.457031 91.703125 25.617188 90.824219 C 26.046875 88.503906 27.800781 86.199219 29.492188 85.730469 L 29.996094 85.59375 L 30.003906 87.050781 C 30.011719 88.886719 30.136719 91.636719 30.210938 91.710938 C 30.417969 91.917969 30.472656 91.207031 30.453125 88.511719 C 30.4375 85.527344 30.441406 85.460938 30.726562 85.308594 C 31.164062 85.078125 29.84375 85.238281 28.96875 85.523438 C 28.039062 85.824219 27.503906 86.253906 26.816406 87.25 C 25.210938 89.589844 25.054688 90.210938 25.027344 94.304688 C 25.015625 96.003906 25.085938 98.289062 25.1875 99.378906 C 25.285156 100.46875 25.386719 102.695312 25.414062 104.324219 C 25.4375 105.957031 25.5 107.355469 25.546875 107.433594 C 25.640625 107.582031 25.683594 108.933594 25.601562 109.007812 C 25.496094 109.0625 25.382812 109.105469 25.269531 109.136719 C 24.996094 109.21875 24.988281 109.171875 24.953125 107.496094 C 24.9375 106.546875 24.875 105.511719 24.816406 105.199219 C 24.757812 104.882812 24.695312 103.429688 24.679688 101.96875 C 24.660156 100.507812 24.589844 98.878906 24.519531 98.351562 C 24.449219 97.828125 24.351562 96.195312 24.304688 94.730469 C 24.230469 92.449219 24.25 91.9375 24.453125 91.175781 C 24.582031 90.6875 24.699219 90.226562 24.714844 90.152344 C 24.898438 89.269531 26.128906 86.679688 26.617188 86.152344 C 27.015625 85.71875 28.414062 84.972656 29.675781 84.519531 C 30.449219 84.246094 30.65625 84.125 30.421875 84.089844 C 29.859375 84.011719 29.246094 84.191406 27.996094 84.8125 C 26.273438 85.664062 25.695312 86.367188 24.835938 88.648438 C 23.828125 91.316406 23.675781 92.847656 23.96875 97.191406 C 24.058594 98.507812 24.199219 100.96875 24.277344 102.660156 C 24.359375 104.351562 24.460938 106.519531 24.507812 107.476562 L 24.59375 109.222656 L 23.363281 109.226562 C 20.367188 109.234375 15.722656 109.207031 15.691406 109.179688 C 15.617188 109.101562 15.617188 106.742188 15.695312 104.367188 C 15.847656 99.683594 15.898438 90.574219 15.773438 89.878906 C 15.707031 89.5 15.578125 87.179688 15.484375 84.714844 C 15.371094 81.703125 15.269531 80.25 15.171875 80.28125 C 15.089844 80.308594 14.988281 80.632812 14.945312 81.003906 C 14.804688 82.125 14.933594 88.03125 15.121094 89.125 C 15.25 89.886719 15.296875 92.578125 15.296875 99.582031 C 15.300781 104.769531 15.351562 109.125 15.417969 109.253906 C 15.589844 109.605469 15.871094 109.644531 19.085938 109.765625 C 20.6875 109.824219 23.074219 109.851562 24.390625 109.820312 C 29.515625 109.710938 35.269531 109.707031 38.46875 109.820312 C 40.820312 109.902344 42.289062 109.886719 43.390625 109.777344 C 45.847656 109.527344 45.5625 109.359375 42.632812 109.335938 Z M 31.101562 109.082031 L 30.679688 109.082031 L 30.667969 105.085938 C 30.652344 97.796875 30.589844 94.117188 30.484375 93.875 C 30.394531 93.675781 30.445312 93.636719 30.792969 93.636719 L 31.210938 93.636719 L 31.140625 96.269531 C 31.0625 99.316406 31.265625 108.492188 31.421875 108.84375 C 31.511719 109.042969 31.457031 109.082031 31.101562 109.082031 Z M 35.386719 108.605469 L 35.296875 109.082031 L 31.773438 109.082031 L 31.765625 108.09375 C 31.761719 107.546875 31.726562 105.59375 31.6875 103.753906 C 31.648438 101.910156 31.605469 98.878906 31.589844 97.019531 L 31.5625 93.636719 L 32.863281 93.617188 C 34.242188 93.59375 34.539062 93.59375 35 93.621094 C 35.273438 93.636719 35.296875 93.734375 35.386719 95.265625 C 35.507812 97.296875 35.507812 107.953125 35.386719 108.605469 Z M 35.386719 108.605469 " fill-opacity="1" fill-rule="nonzero"/></g><path fill="#8d5524" d="M 45.601562 79.875 C 45.390625 79.496094 44.09375 78.261719 44 78.359375 C 43.914062 78.441406 44.332031 78.976562 45.136719 79.8125 C 45.597656 80.289062 45.84375 80.324219 45.601562 79.875 Z M 45.601562 79.875 " fill-opacity="1" fill-rule="nonzero"/><path fill="#8d5524" d="M 1.835938 81.957031 C 2.023438 81.898438 4.421875 81.800781 7.167969 81.734375 C 9.910156 81.667969 12.402344 81.558594 12.703125 81.492188 C 13.238281 81.367188 13.230469 81.363281 12.359375 81.335938 C 7.117188 81.164062 0.867188 81.394531 1.089844 81.75 C 1.121094 81.808594 0.875 82.144531 0.539062 82.5 C 0.203125 82.855469 -0.0351562 83.207031 0.0078125 83.277344 C 0.0859375 83.398438 0.621094 82.988281 1.21875 82.347656 C 1.394531 82.171875 1.601562 82.039062 1.835938 81.957031 Z M 1.835938 81.957031 " fill-opacity="1" fill-rule="nonzero"/><path fill="#8d5524" d="M 4.148438 85.304688 C 4.128906 87.480469 4.164062 88.421875 4.324219 89.707031 C 4.414062 90.441406 4.527344 91.039062 4.578125 91.039062 C 4.625 91.039062 4.65625 89.625 4.652344 87.898438 C 4.640625 85.105469 4.613281 84.734375 4.398438 84.523438 C 4.171875 84.292969 4.160156 84.332031 4.148438 85.304688 Z M 4.148438 85.304688 " fill-opacity="1" fill-rule="nonzero"/><path fill="#8d5524" d="M 8.226562 91.539062 C 7.441406 91.667969 7.613281 91.84375 8.566406 91.886719 C 9.640625 91.9375 10.585938 91.863281 10.585938 91.730469 C 10.585938 91.582031 8.832031 91.4375 8.226562 91.539062 Z M 8.226562 91.539062 " fill-opacity="1" fill-rule="nonzero"/><g clip-path="url(#485e40d9ad)"><path fill="#8d5524" d="M 10.277344 108.636719 C 7.167969 108.609375 6.894531 108.625 6.894531 108.839844 C 6.894531 109 7.046875 109.097656 7.40625 109.15625 C 7.6875 109.199219 8.011719 109.257812 8.125 109.28125 C 8.734375 109.410156 12.757812 109.210938 14.136719 108.984375 L 14.617188 108.90625 L 14.136719 108.789062 C 13.875 108.722656 12.136719 108.65625 10.277344 108.636719 Z M 10.277344 108.636719 " fill-opacity="1" fill-rule="nonzero"/></g><path fill="#8d5524" d="M 47.464844 93.125 C 47.476562 92.464844 47.574219 90.945312 47.683594 89.742188 C 47.929688 87 47.882812 84.671875 47.578125 84.367188 C 47.457031 84.25 47.335938 84.179688 47.308594 84.210938 C 47.234375 84.292969 47.035156 90.382812 47.058594 91.859375 C 47.074219 92.976562 47.183594 94.003906 47.3125 94.21875 C 47.425781 94.414062 47.441406 94.316406 47.464844 93.125 Z M 47.464844 93.125 " fill-opacity="1" fill-rule="nonzero"/><path fill="#8d5524" d="M 47.390625 97.667969 L 47.515625 97.257812 C 47.695312 96.664062 47.488281 95.140625 47.226562 95.140625 C 47.121094 95.140625 47.171875 96.378906 47.3125 97.191406 Z M 47.390625 97.667969 " fill-opacity="1" fill-rule="nonzero"/><g clip-path="url(#4357144b21)"><path fill="#8d5524" d="M 57.039062 108.902344 C 56.253906 108.753906 48.082031 108.710938 47.574219 108.851562 C 47.136719 108.972656 47.230469 109.171875 47.765625 109.242188 C 48.644531 109.359375 57.542969 109.277344 57.585938 109.152344 C 57.609375 109.078125 57.363281 108.964844 57.039062 108.902344 Z M 57.039062 108.902344 " fill-opacity="1" fill-rule="nonzero"/></g><g clip-path="url(#9dcc391576)"><path fill="#8d5524" d="M 52.617188 83.328125 C 50.265625 83.441406 50.597656 83.585938 53.371094 83.65625 C 57.761719 83.769531 60.949219 83.6875 61 83.460938 C 61.085938 83.074219 58.695312 83.035156 52.617188 83.328125 Z M 52.617188 83.328125 " fill-opacity="1" fill-rule="nonzero"/></g><path fill="#8d5524" d="M 58.347656 86.804688 C 58.304688 85.339844 58.238281 84.09375 58.203125 84.035156 C 58.054688 83.792969 57.882812 83.964844 57.738281 84.5 C 57.578125 85.089844 57.53125 92.078125 57.671875 94.046875 C 58.042969 99.269531 58.050781 99.402344 58.28125 104.421875 C 58.359375 106.074219 58.480469 107.414062 58.558594 107.492188 C 58.660156 107.640625 58.714844 107.804688 58.71875 107.984375 C 58.726562 108.175781 58.792969 107.960938 58.863281 107.511719 C 58.984375 106.730469 58.914062 96.917969 58.78125 96.027344 C 58.699219 95.484375 58.449219 90.140625 58.347656 86.804688 Z M 58.347656 86.804688 " fill-opacity="1" fill-rule="nonzero"/><path fill="#8d5524" d="M 9.40625 83.03125 C 11.125 83.007812 12.558594 82.960938 12.589844 82.929688 C 12.621094 82.898438 11.828125 82.792969 10.828125 82.699219 C 9.554688 82.574219 8.132812 82.554688 6.074219 82.625 C 1.824219 82.769531 1.058594 82.847656 1.234375 83.136719 C 1.304688 83.246094 2.019531 83.257812 3.804688 83.183594 C 5.164062 83.121094 7.683594 83.054688 9.40625 83.03125 Z M 9.40625 83.03125 " fill-opacity="1" fill-rule="nonzero"/></svg>