<svg xmlns="http://www.w3.org/2000/svg" xmlns:xlink="http://www.w3.org/1999/xlink" width="116" zoomAndPan="magnify" viewBox="0 0 87 88.499997" height="118" preserveAspectRatio="xMidYMid meet" version="1.0"><defs><clipPath id="0ad29115fb"><path d="M 0.246094 14 L 78 14 L 78 86.089844 L 0.246094 86.089844 Z M 0.246094 14 " clip-rule="nonzero"/></clipPath></defs><g clip-path="url(#0ad29115fb)"><path fill="#9f6e40" d="M 36.65625 85.605469 C 37.589844 86.183594 38.773438 86.195312 39.746094 85.699219 L 72.140625 69.238281 C 73.664062 68.46875 74.261719 66.742188 73.859375 65.25 C 74.089844 65.121094 75.808594 64.152344 75.675781 64.226562 C 78.199219 62.808594 78.28125 59.226562 75.832031 57.695312 C 73.878906 56.484375 71.960938 55.140625 70.132812 53.710938 C 69.617188 53.316406 69.015625 54.085938 69.527344 54.488281 C 71.386719 55.9375 73.332031 57.300781 75.3125 58.53125 C 77.125 59.664062 77.070312 62.316406 75.195312 63.371094 C 75.0625 63.445312 73.328125 64.421875 73.460938 64.347656 L 43.628906 81.140625 C 42.78125 81.609375 41.796875 81.632812 40.992188 81.203125 C 24.882812 72.742188 9.273438 52.320312 2.148438 30.386719 C 1.738281 29.140625 2.246094 27.753906 3.390625 27.070312 C 3.871094 26.734375 1.765625 27.492188 40.191406 15.835938 C 41.621094 15.40625 43.109375 16.140625 43.65625 17.550781 C 46.660156 25.28125 50.265625 32.21875 54.363281 38.167969 C 54.734375 38.703125 55.542969 38.144531 55.171875 37.609375 C 51.117188 31.722656 47.550781 24.855469 44.570312 17.195312 C 43.839844 15.300781 41.832031 14.3125 39.90625 14.894531 C 1.855469 26.457031 3.53125 25.773438 2.859375 26.246094 C 2.101562 26.699219 1.550781 27.394531 1.257812 28.191406 C 0.824219 28.953125 0.664062 29.882812 0.898438 30.800781 C 6.925781 54.789062 21.730469 76.308594 36.65625 85.605469 Z M 36.65625 85.605469 " fill-opacity="1" fill-rule="nonzero"/></g><path fill="#9f6e40" d="M 19.144531 47.539062 C 18.804688 47.65625 18.199219 47.808594 17.898438 47.535156 C 17.417969 47.101562 16.757812 47.820312 17.238281 48.261719 C 17.832031 48.804688 18.699219 48.730469 19.460938 48.46875 C 21.496094 47.773438 23.527344 46.246094 25.199219 43.597656 C 28.265625 46.515625 32.546875 45.308594 34.070312 42.285156 C 34.835938 40.761719 34.867188 38.78125 35.566406 37.433594 C 37.890625 39.4375 41.324219 38.523438 42.476562 35.90625 C 42.742188 35.3125 41.839844 34.910156 41.578125 35.507812 C 40.570312 37.796875 37.476562 38.261719 35.851562 36.332031 C 35.640625 36.078125 35.257812 36.105469 35.078125 36.355469 C 33.863281 38.015625 34.023438 40.195312 33.191406 41.839844 C 31.867188 44.472656 28.183594 45.324219 25.703125 42.71875 C 26.753906 40.734375 27.359375 38.628906 27.777344 36.949219 C 28.261719 34.992188 28.632812 32.730469 27.71875 30.804688 C 26.859375 28.984375 24.886719 28.910156 23.972656 31.523438 C 22.617188 35.382812 21.964844 39.601562 24.507812 42.835938 C 23.257812 44.957031 21.414062 46.761719 19.144531 47.539062 Z M 24.898438 31.847656 C 25.375 30.484375 26.203125 29.898438 26.832031 31.222656 C 27.613281 32.867188 27.289062 34.832031 26.824219 36.710938 C 26.445312 38.226562 25.914062 40.097656 25.027344 41.878906 C 23.011719 38.902344 23.710938 35.230469 24.898438 31.847656 Z M 24.898438 31.847656 " fill-opacity="1" fill-rule="nonzero"/><path fill="#9f6e40" d="M 31.132812 61.199219 C 36.003906 57.328125 41.339844 54.015625 46.984375 51.347656 C 47.570312 51.074219 47.15625 50.183594 46.566406 50.460938 C 40.851562 53.160156 35.453125 56.511719 30.523438 60.429688 C 30.011719 60.835938 30.625 61.601562 31.132812 61.199219 Z M 31.132812 61.199219 " fill-opacity="1" fill-rule="nonzero"/><path fill="#9f6e40" d="M 47.726562 10.449219 L 49.144531 6.753906 C 49.378906 6.148438 48.460938 5.792969 48.230469 6.398438 L 46.808594 10.097656 C 46.574219 10.703125 47.492188 11.054688 47.726562 10.449219 Z M 47.726562 10.449219 " fill-opacity="1" fill-rule="nonzero"/><path fill="#9f6e40" d="M 49.480469 12.222656 C 50.914062 11.132812 52.296875 9.9375 53.585938 8.671875 C 54.046875 8.214844 53.363281 7.515625 52.898438 7.96875 C 51.636719 9.210938 50.289062 10.375 48.886719 11.441406 C 48.367188 11.835938 48.972656 12.613281 49.480469 12.222656 Z M 49.480469 12.222656 " fill-opacity="1" fill-rule="nonzero"/><path fill="#9f6e40" d="M 50.445312 14.445312 L 55.246094 13.640625 C 55.871094 13.535156 55.738281 12.582031 55.082031 12.671875 L 50.285156 13.472656 C 49.65625 13.582031 49.789062 14.535156 50.445312 14.445312 Z M 50.445312 14.445312 " fill-opacity="1" fill-rule="nonzero"/><path fill="#9f6e40" d="M 79.511719 20.453125 C 81.683594 15.214844 81.734375 14.589844 82.726562 12.289062 C 83.867188 9.65625 85.59375 5.675781 82.78125 3.855469 C 79.648438 1.828125 77.0625 5.429688 75.671875 7.363281 L 75.578125 7.496094 C 73.316406 10.652344 71.808594 12.945312 70.46875 15.027344 C 69.511719 13.351562 68.476562 11.996094 66.597656 12.515625 C 65.304688 12.875 63.851562 14.316406 63.601562 15.933594 C 62.996094 15.9375 62.710938 16.308594 62.046875 17.085938 C 59.679688 20.089844 60.15625 23.84375 60.132812 23.164062 L 60.128906 23.398438 C 60.09375 24.835938 60.597656 24.992188 62.152344 25.617188 C 62.15625 25.617188 62.347656 25.691406 62.351562 25.691406 C 62.726562 25.835938 63.164062 25.988281 63.964844 26.1875 C 59.707031 34.3125 59.753906 35.601562 57.558594 41.394531 L 57.464844 41.625 C 56.976562 42.835938 56.242188 44.660156 56.691406 45.957031 C 53.722656 49.164062 52.382812 48.945312 52.046875 51.015625 C 51.765625 51.847656 51.894531 52.820312 52.015625 53.671875 C 52.203125 55.113281 51.871094 57.035156 52.449219 58.367188 C 48.390625 60.683594 44.417969 63.257812 40.648438 66.035156 C 40.125 66.421875 40.707031 67.210938 41.230469 66.824219 C 45.070312 63.996094 49.113281 61.378906 53.253906 59.035156 C 53.308594 59.042969 53.363281 59.039062 53.417969 59.039062 C 54.726562 59.554688 56.574219 57.992188 57.75 57.097656 C 59.242188 56.066406 60.980469 55.925781 60.980469 52.875 C 61.015625 51.257812 61.140625 50.242188 61.382812 48.824219 C 62.371094 48.769531 63.246094 48.257812 63.972656 47.261719 C 66.0625 44.402344 68.886719 42.183594 74.476562 31.332031 C 75.335938 32.230469 76.363281 33.054688 77.589844 33.757812 C 78.410156 34.203125 78.847656 33.976562 79.628906 33.394531 C 83.1875 31.195312 84.363281 27.378906 83.773438 26.5 C 84.5 25.824219 84.988281 24.832031 85.105469 23.660156 C 85.339844 20.25 82.800781 19.910156 79.511719 20.453125 Z M 76.46875 7.9375 C 78.203125 5.519531 80.078125 3.277344 82.246094 4.679688 C 84.800781 6.335938 82.121094 10.914062 81.242188 13.3125 C 80.351562 15.769531 79.378906 18.246094 78.359375 20.675781 C 76.851562 21.046875 75.394531 21.632812 74.082031 22.484375 C 73.621094 21.828125 72.789062 21.734375 72.3125 21.871094 C 72.359375 19.960938 71.773438 17.722656 70.984375 16.035156 C 73.792969 11.628906 76.375 8.078125 76.46875 7.9375 Z M 73.027344 22.820312 C 73.171875 22.9375 73.382812 22.964844 73.453125 23.5 C 73.675781 24.820312 71.855469 26.714844 71.21875 25.292969 C 70.925781 24.316406 71.824219 22.671875 73.027344 22.820312 Z M 61.109375 23.414062 L 61.117188 23.164062 C 61.132812 23.035156 60.878906 20.15625 62.808594 17.707031 C 63.421875 16.976562 63.671875 16.816406 63.484375 16.972656 C 63.53125 16.929688 63.5625 16.914062 63.597656 16.914062 C 64.179688 17.101562 65.035156 17.191406 66.628906 18.527344 C 67.121094 18.945312 67.761719 18.195312 67.261719 17.773438 C 66.550781 17.183594 65.582031 16.496094 64.542969 16.167969 C 64.761719 14.515625 67.121094 12.3125 68.59375 14.007812 C 69.785156 15.296875 71.351562 18.605469 71.339844 21.832031 C 70.492188 20.765625 69.371094 19.652344 68.367188 18.75 C 67.902344 18.332031 67.253906 18.992188 67.675781 19.445312 L 70.882812 22.914062 C 70.554688 23.289062 70.269531 24.046875 70.269531 24.21875 C 70.238281 24.3125 70.234375 24.371094 70.226562 24.421875 C 69.582031 24.492188 69.183594 24.527344 68.878906 24.507812 C 68.675781 24.554688 67.140625 24.425781 66.085938 23.976562 C 66.085938 23.976562 66.085938 23.976562 66.074219 23.972656 C 65.210938 23.609375 63.027344 22.160156 61.109375 23.414062 Z M 59.996094 52.863281 C 59.996094 54.144531 59.851562 54.75 58.4375 55.570312 C 57.945312 55.863281 57.503906 56.03125 57.085938 56.359375 C 56.386719 56.898438 54.769531 58.207031 53.941406 58.167969 C 54.355469 57.753906 54.230469 56.605469 56.691406 52.242188 C 57.027344 51.6875 57.394531 51.148438 57.769531 50.625 C 58.148438 50.097656 57.351562 49.519531 56.972656 50.050781 C 55.648438 51.894531 54.5 53.914062 53.316406 57.214844 C 53.058594 56.023438 53.273438 54.507812 53.082031 53.15625 C 52.578125 49.203125 53.691406 50.761719 57.625 46.410156 C 57.625 46.410156 57.628906 46.40625 57.628906 46.40625 C 57.636719 46.398438 58.316406 45.652344 58.410156 45.539062 C 58.765625 45.101562 60.449219 45.976562 60.832031 46.464844 C 60.953125 46.621094 60.09375 48.578125 59.996094 52.863281 Z M 67.339844 41.007812 C 63.625 45.667969 63.144531 47.535156 61.570312 47.824219 C 61.886719 46.355469 62.28125 45.863281 60.039062 44.773438 C 59.285156 44.414062 58.210938 44.238281 57.652344 44.914062 C 57.621094 44.953125 57.578125 44.992188 57.546875 45.027344 C 57.558594 43.984375 58.097656 42.6875 58.476562 41.75 C 58.738281 41.050781 59.179688 39.964844 59.578125 39.078125 C 59.960938 38.199219 60.222656 36.648438 61.027344 36.382812 C 62.863281 35.773438 66.628906 37.679688 67.511719 39.328125 C 67.832031 39.90625 67.777344 40.457031 67.339844 41.007812 Z M 68.625 39.503906 C 68.042969 37.132812 63.242188 34.652344 60.75 35.445312 C 61.582031 33.257812 62.441406 31.175781 64.96875 26.382812 C 66.800781 26.644531 67.78125 26.488281 69.113281 26.199219 L 69.113281 26.195312 C 69.285156 26.1875 70.078125 25.898438 70.359375 25.78125 C 70.589844 26.367188 71.15625 26.792969 71.898438 26.761719 C 72.296875 28.375 72.964844 29.488281 73.785156 30.53125 C 71.664062 34.683594 70.253906 37.050781 68.625 39.503906 Z M 83.054688 25.84375 C 82.589844 25.484375 82.355469 25.292969 81.214844 24.804688 C 80.613281 24.550781 80.234375 25.457031 80.828125 25.710938 C 82.304688 26.339844 82.582031 26.734375 82.734375 26.828125 C 83.007812 27.09375 83.023438 26.945312 82.941406 27.371094 C 82.492188 29.535156 80.953125 31.421875 79.09375 32.570312 C 79.039062 32.605469 78.976562 32.652344 78.914062 32.703125 C 78.910156 32.398438 78.859375 32.136719 78.769531 31.875 C 77.859375 29.046875 75.398438 29.984375 73.273438 26.179688 C 73.882812 25.664062 74.1875 25.113281 74.359375 24.371094 C 74.429688 24.382812 78.710938 25.109375 78.78125 25.109375 C 79.355469 25.109375 79.460938 24.289062 78.902344 24.144531 C 77.460938 23.773438 76.054688 23.472656 74.5625 23.359375 C 77.046875 21.726562 80.5625 21.007812 82.511719 21.269531 C 83.25 21.34375 83.820312 21.703125 84.035156 22.394531 C 84.351562 23.496094 83.976562 25.066406 83.054688 25.84375 Z M 83.054688 25.84375 " fill-opacity="1" fill-rule="nonzero"/></svg>